<?xml version="1.0" encoding="UTF-8"?>
<svg id="uuid-942f8914-ac11-422b-b0ea-6dd7c665c5d1" data-name="Capa 2" xmlns="http://www.w3.org/2000/svg" viewBox="0 0 39.77094 44.43176">
  <g id="uuid-4b323fdf-c202-4137-9eea-6b608de7e879" data-name="Capa 1">
    <g opacity=".6">
      <path d="m12.36327,4.3192c0-.86889-.01004-1.63019.00231-2.39113.01938-1.19369.71808-1.91141,1.89732-1.91825,2.21992-.01286,4.44002-.01348,6.65993.00042,1.17254.00734,1.83514.69219,1.85038,1.86601.00961.73997.00767,1.48008.01373,2.2201.00035.04236.02622.08451.07199.22266.41933,0,.87319-.00644,1.3268.00116,1.63973.02747,3.30082-.09779,4.91473.12198,3.65669.49794,6.01731,3.15927,6.08733,6.85517.08192,4.32401.02962,8.65074.01635,12.97623-.00331,1.07846-.58871,1.76867-1.53494,1.92873-.6971.11792-1.50978-.32274-1.77579-1.04584-.13076-.35543-.15225-.76612-.15322-1.15197-.01029-4.09422-.00967-8.18848-.00496-12.28272.00178-1.55115-.50818-2.82262-1.97838-3.52139-.44832-.21308-.96845-.36842-1.45989-.38057-1.80093-.04454-3.60363-.01764-5.50865-.01764.13769,2.16085-.50279,3.98359-2.34234,5.22506-1.01157.68269-2.14985.96079-3.36303.83605-2.88109-.29624-4.4285-2.24744-4.76827-6.06915-.4413,0-.89404-.00001-1.34679,0-1.24875.00004-2.4976-.01034-3.74621.00243-2.28536.02337-3.73739,1.46358-3.73915,3.73276-.00666,8.55854-.00605,17.11709-.00055,25.67563.0015,2.32963,1.42795,3.73771,3.77948,3.74352,3.09872.00766,6.19751-.00722,9.29619.00668,1.36993.00615,2.20917,1.11135,1.78369,2.30739-.2401.67493-.74105,1.13199-1.43536,1.13255-3.69715.00294-7.40807.13919-11.08745-.13295-3.30359-.24434-5.784-3.28703-5.80161-6.64042-.03035-5.78267-.01037-11.56561-.01115-17.34843-.00039-2.91455-.00552-5.82911.00136-8.74364.00994-4.20537,3.00171-7.1915,7.21922-7.20927,1.6834-.0071,3.36685-.00117,5.13694-.00117Zm3.48079-.82041c0,1.79807-.03641,3.52919.01408,5.25777.02886.98818.86554,1.69076,1.79681,1.65071.94594-.04068,1.6329-.77388,1.64147-1.79213.01284-1.52661.00561-3.05341.00164-4.58012-.00046-.17491-.0346-.34973-.05436-.53624h-3.39964Z" fill="#ecae09" stroke-width="0"/>
      <path d="m27.56439,44.41888c-1.3417-.01563-2.41624-.3998-3.28651-1.23469-1.85185-1.77657-3.68743-3.57039-5.51092-5.3761-.64621-.63991-.73979-1.36062-.36148-2.08989.34428-.66367,1.10176-1.06922,1.86704-.85911.41968.11522.83139.40121,1.15301.70836,1.65517,1.58068,3.27744,3.1958,4.91644,4.79351.85909.83745,1.35731.78907,2.06382-.19707,2.67855-3.73866,5.35604-7.47809,8.02829-11.22126.48877-.68465,1.07437-1.17767,1.97213-.96172,1.31115.31539,1.77563,1.67586.95888,2.83563-1.47703,2.09736-2.97989,4.17652-4.47338,6.26227-1.30519,1.82278-2.60916,3.64644-3.91969,5.46538-.87011,1.20767-2.07622,1.79164-3.40763,1.87469Z" fill="#ecae09" stroke-width="0"/>
      <path d="m20.56008,19.28731c1.9396.00004,3.87922-.00538,5.81879.00214,1.10955.0043,1.86524.69709,1.87627,1.69437.01076.97327-.76283,1.76353-1.8376,1.76892-3.87909.01943-7.75839.0181-11.6375.00171-1.12601-.00475-1.89635-.78507-1.86835-1.80068.02761-1.00135.76993-1.66087,1.89889-1.66471,1.91648-.00652,3.83301-.00179,5.74952-.00175Z" fill="#ecae09" stroke-width="0"/>
      <path d="m20.66668,26.22706c1.89516-.00001,3.79034-.00472,5.68547.00177,1.12419.00385,1.87396.67115,1.90184,1.67067.02788.99967-.76551,1.79109-1.88427,1.79559-3.83648.01546-7.67311.01667-11.50958-.00078-1.13357-.00516-1.86682-.76512-1.84276-1.81114.02356-1.02459.73117-1.65064,1.89449-1.65441,1.91825-.00621,3.83654-.00169,5.75481-.0017Z" fill="#ecae09" stroke-width="0"/>
      <path d="m8.65613,19.29073c.95526-.00025,1.73249.75456,1.74415,1.69384.01158.93241-.8516,1.79127-1.77602,1.76713-.93878-.02451-1.68469-.80787-1.68003-1.7644.00475-.97511.73247-1.69632,1.7119-1.69657Z" fill="#ecae09" stroke-width="0"/>
      <path d="m8.6652,26.23037c.95356.00301,1.73074.76569,1.73541,1.70302.00451.90624-.8073,1.7386-1.71622,1.75966-.94934.022-1.74875-.79349-1.74004-1.77505.00866-.97621.73725-1.69074,1.72085-1.68763Z" fill="#ecae09" stroke-width="0"/>
    </g>
  </g>
</svg>