<?xml version="1.0" encoding="UTF-8"?>
<svg id="uuid-8c1d65e7-bc48-4384-b3ae-c0926f7b6db5" data-name="Capa 2" xmlns="http://www.w3.org/2000/svg" viewBox="0 0 14.94144 14.92783">
  <g id="uuid-b970c14c-82c8-45f0-b430-afdb403ba225" data-name="Capa 1">
    <path d="m14.94144,7.73739L14.81438.04499l-7.78539-.04499-.00015.02631c-1.35021-.00535-2.70059-.01575-4.05051.00344C1.24412.05452.0304,1.24664.01743,2.97646c-.0225,3.001-.02435,6.00245.00106,9.00338.01434,1.69355,1.19842,2.90325,2.89256,2.92267,3.02938.03473,6.05967.03268,9.08909.00037,1.58938-.01693,2.74602-1.04586,2.8507-2.62744.09971-1.50669.04994-3.02379.03812-4.53715l.05248-.00088Zm-3.49668,5.9927H3.40922c.04415-.75547.02008-1.50134.14912-2.21974.12479-.69473.81171-1.16508,1.60979-1.17813,1.52893-.02499,3.05911-.03217,4.58766.00256.95169.02154,1.58785.62621,1.67838,1.56649.05692.59119.01061,1.19219.01061,1.82881Zm-6.27985-6.81104c-.01449-1.25902,1.00694-2.2862,2.28118-2.29397,1.27179-.00777,2.29952,1.01025,2.29708,2.27528-.00238,1.24012-1.01809,2.26612-2.25803,2.28092-1.25913.01502-2.30576-1.00549-2.32024-2.26224Zm8.5635,5.10548c-.00804.81629-.47615,1.44228-1.15662,1.54993.19099-2.04937-.04798-3.86939-2.51291-4.38628,1.16323-2.05773,1.03408-3.72306-.36826-4.91298-1.2708-1.0784-3.07192-1.10895-4.37979-.07262-.61583.48794-1.01802,1.12163-1.19452,1.88062-.26533,1.14083.02609,2.16661.76529,3.09399-.09577.03371-.14633.05862-.19975.06939-1.4534.29332-2.36001,1.38887-2.37382,2.87541-.00452.48523-.00071.97061-.00071,1.49497-.78084-.2934-1.12916-.83761-1.13017-1.73121-.00328-2.92971-.00372-5.85949-.00015-8.78919.00152-1.25265.65213-1.90121,1.90385-1.90495,1.31372-.00381,2.62746.00059,3.94118-.00242l-.00007.01136,6.61151.03825.10434,6.31489c-.00562.10361-.00401.20803-.00407.31208-.00088,1.38623.0083,2.7726-.00533,4.15876Z" fill="#063f23" stroke-width="0"/>
  </g>
</svg>