<?xml version="1.0" encoding="UTF-8"?>
<svg id="uuid-8c83e61f-3e2b-45ba-8b53-9186da3af33b" data-name="Capa 2" xmlns="http://www.w3.org/2000/svg" viewBox="0 0 221.85999 221.80005">
  <g id="uuid-283e6a39-d7eb-479d-b6aa-8b16078e5eb1" data-name="Capa 1">
    <rect x="135.08997" y="59.23999" width="6.90002" height="6.90002" fill="#fff" stroke-width="0"/>
    <rect x="86.78998" y="52.34009" width="6.90002" height="6.8999" fill="#fff" stroke-width="0"/>
    <polygon points="100.58997 52.34009 100.58997 59.23999 107.48999 59.23999 107.48999 52.34009 114.39001 52.34009 114.39001 45.43994 107.48999 45.43994 100.58997 45.43994 93.69 45.43994 93.69 52.34009 100.58997 52.34009" fill="#fff" stroke-width="0"/>
    <polygon points="100.58997 86.84009 107.48999 86.84009 114.39001 86.84009 114.39001 79.93994 107.48999 79.93994 107.48999 73.04004 114.39001 73.04004 114.39001 66.14001 114.39001 59.23999 107.48999 59.23999 107.48999 66.14001 100.58997 66.14001 100.58997 59.23999 93.69 59.23999 93.69 66.14001 93.69 73.04004 100.58997 73.04004 100.58997 79.93994 93.69 79.93994 93.69 86.84009 100.58997 86.84009" fill="#fff" stroke-width="0"/>
    <path d="m190.28998,17.84009h-20.70001v34.5h34.5V17.84009h-13.79999Zm6.90002,13.79993v13.79993h-20.70001v-20.69995h20.70001v6.90002Z" fill="#fff" stroke-width="0"/>
    <polygon points="128.19 93.73999 128.19 100.64001 128.19 107.54004 135.08997 107.54004 141.98999 107.54004 141.98999 100.64001 141.98999 93.73999 135.08997 93.73999 135.08997 86.84009 128.19 86.84009 128.19 93.73999" fill="#fff" stroke-width="0"/>
    <rect x="128.19" y="52.34009" width="6.89996" height="6.8999" fill="#fff" stroke-width="0"/>
    <rect x="121.28998" y="59.23999" width="6.90002" height="6.90002" fill="#fff" stroke-width="0"/>
    <rect x="114.39001" y="52.34009" width="6.89996" height="6.8999" fill="#fff" stroke-width="0"/>
    <rect x="141.98999" y="52.34009" width="6.90002" height="6.8999" fill="#fff" stroke-width="0"/>
    <polygon points="141.98999 73.04004 135.08997 73.04004 135.08997 79.93994 135.08997 86.84009 141.98999 86.84009 141.98999 79.93994 148.89001 79.93994 148.89001 86.84009 155.78998 86.84009 155.78998 79.93994 155.78998 73.04004 148.89001 73.04004 148.89001 66.14001 141.98999 66.14001 141.98999 73.04004" fill="#fff" stroke-width="0"/>
    <path d="m155.78998,169.64001v6.90002h20.70001v-20.69995h-20.70001v13.79993Zm6.90002-6.90002h6.89996v6.90002h-6.89996v-6.90002Z" fill="#fff" stroke-width="0"/>
    <polygon points="176.48999 190.34009 169.58997 190.34009 169.58997 197.23999 169.58997 204.14001 176.48999 204.14001 176.48999 197.23999 183.39001 197.23999 183.39001 190.34009 183.39001 183.43994 176.48999 183.43994 176.48999 190.34009" fill="#fff" stroke-width="0"/>
    <polygon points="107.48999 121.34009 107.48999 114.43994 100.58997 114.43994 93.69 114.43994 93.69 121.34009 100.58997 121.34009 107.48999 121.34009" fill="#fff" stroke-width="0"/>
    <polygon points="86.78998 162.73999 79.89001 162.73999 79.89001 169.64001 79.89001 176.54004 86.78998 176.54004 86.78998 169.64001 86.78998 162.73999" fill="#fff" stroke-width="0"/>
    <rect x="135.08997" y="24.73999" width="6.90002" height="6.90002" fill="#fff" stroke-width="0"/>
    <path d="m52.28998,128.23999v-6.8999h20.70001v-13.80005h27.59998v-6.90002h6.90002v-6.90002h-13.79999v-6.8999h-20.70001v-6.90015h-13.79999v6.90015h6.89996v6.8999h-6.89996v6.90002h6.89996v13.79993h-13.79999v-6.8999h-6.89996v6.8999h-6.90002v6.90015h-6.90002v-6.90015h-6.89996v13.80005h13.79999v6.90002h6.90002v-6.90002h6.89996Zm27.60004-34.5h6.89996v6.90002h-6.89996v-6.90002Z" fill="#fff" stroke-width="0"/>
    <polygon points="72.98999 142.04004 79.89001 142.04004 86.78998 142.04004 86.78998 135.14001 79.89001 135.14001 72.98999 135.14001 72.98999 128.23999 66.08997 128.23999 59.19 128.23999 52.28998 128.23999 52.28998 135.14001 59.19 135.14001 59.19 142.04004 66.08997 142.04004 72.98999 142.04004" fill="#fff" stroke-width="0"/>
    <rect x="52.28998" y="73.04004" width="6.90002" height="6.8999" fill="#fff" stroke-width="0"/>
    <polygon points="155.78998 121.34009 155.78998 114.43994 148.89001 114.43994 148.89001 121.34009 148.89001 128.23999 141.98999 128.23999 141.98999 135.14001 148.89001 135.14001 155.78998 135.14001 155.78998 128.23999 155.78998 121.34009" fill="#fff" stroke-width="0"/>
    <rect x="52.28998" y="100.64001" width="6.90002" height="6.90002" fill="#fff" stroke-width="0"/>
    <rect x="86.78998" y="155.84009" width="6.90002" height="6.8999" fill="#fff" stroke-width="0"/>
    <rect x="141.98999" y="142.04004" width="6.90002" height="6.8999" fill="#fff" stroke-width="0"/>
    <polygon points="121.28998 155.84009 121.28998 148.93994 121.28998 142.04004 121.28998 135.14001 121.28998 128.23999 121.28998 121.34009 114.39001 121.34009 114.39001 128.23999 114.39001 135.14001 107.48999 135.14001 107.48999 128.23999 100.58997 128.23999 93.69 128.23999 93.69 121.34009 86.78998 121.34009 86.78998 114.43994 79.89001 114.43994 79.89001 121.34009 72.98999 121.34009 72.98999 128.23999 79.89001 128.23999 86.78998 128.23999 86.78998 135.14001 93.69 135.14001 93.69 142.04004 100.58997 142.04004 107.48999 142.04004 114.39001 142.04004 114.39001 148.93994 107.48999 148.93994 107.48999 155.84009 100.58997 155.84009 100.58997 162.73999 107.48999 162.73999 114.39001 162.73999 114.39001 155.84009 121.28998 155.84009" fill="#fff" stroke-width="0"/>
    <polygon points="135.08997 128.23999 128.19 128.23999 128.19 135.14001 128.19 142.04004 128.19 148.93994 135.08997 148.93994 135.08997 142.04004 141.98999 142.04004 141.98999 135.14001 135.08997 135.14001 135.08997 128.23999" fill="#fff" stroke-width="0"/>
    <rect x="93.69" y="148.93994" width="6.89996" height="6.90015" fill="#fff" stroke-width="0"/>
    <rect x="79.89001" y="148.93994" width="6.89996" height="6.90015" fill="#fff" stroke-width="0"/>
    <path d="m209.85999,2.48999H12c-5.26263.00562-9.52899,4.26733-9.54004,9.53003v197.77002c.00555,5.26648,4.2735,9.53442,9.54004,9.54004h197.78998c5.24664-.01562,9.51752-4.22412,9.60999-9.47009V12c-.02197-5.25476-4.28516-9.50452-9.53998-9.51001ZM66.08997,24.73999v-6.8999h6.90002v-6.90015h6.90002v6.90015h6.89996v-6.90015h13.79999v6.90015h-13.79999v6.8999h-13.79999v6.90002h-6.90002v-6.90002ZM10.89001,52.34009V10.93994h48.29999v48.30005H10.89001v-6.8999Zm0,27.59985h6.89996v-6.8999h13.79999v-6.90002h6.90002v20.70007h-13.79999v-6.90015h-6.90002v6.90015h-6.89996v-6.90015Zm20.69995,13.80005v6.90002h-6.89996v-6.90002h6.89996Zm27.60004,75.90002v41.40002H10.89001v-48.30005h48.29999v6.90002Zm-34.5-13.79993v-6.90015h6.89996v6.90015h-6.89996Zm13.79999,0v-6.90015h6.90002v6.90015h-6.90002Zm48.29999,55.19995h-13.79999v-13.80005h6.90002v6.90002h6.89996v6.90002Zm-20.70001-20.69995v-6.90015h6.90002v6.90015h-6.90002Zm55.20001,20.69995h-20.70001v-6.90002h-6.89996v-6.90002h6.89996v6.90002h20.70001v6.90002Zm27.60004-6.90002h-6.90002v6.90002h-13.79999v-6.90002h13.79999v-6.90002h6.90002v6.90002Zm-20.70001-6.90002v-13.80005h6.89996v13.80005h-6.89996Zm62.09998-62.09998h-20.70001v-6.90002h27.60004v6.90002h6.89996v6.90002h-6.89996v-6.90002h-6.90002Zm-13.79999-13.79993v-6.90015h6.90002v6.90015h-6.90002Zm34.5,89.69995h-6.90002v-6.90002h6.90002v6.90002Zm0-55.19995v34.5h-6.90002v-41.40015h6.90002v6.90015Zm0-48.30005v13.80005h-6.90002v-6.90015h-6.89996v6.90015h-6.90002v-13.80005h-13.79999v-6.90002h-6.90002v20.70007h-6.89996v13.79993h-6.90002v6.90002h6.90002v6.8999h6.89996v-6.8999h20.70001v13.80005h6.90002v6.8999h-6.90002v-6.8999h-6.89996v13.79993h6.89996v6.90002h6.90002v6.8999h-6.90002v6.90015h6.90002v20.69995h-6.90002v-6.90002h-6.89996v6.90002h-27.60004v-6.90002h6.90002v-13.79993h-20.70001v-34.5h-6.90002v20.69995h-13.79999v-6.90002h-27.59998v6.90002h-6.90002v6.8999h34.5v6.90015h-6.89996v6.8999h-6.90002v-6.8999h-20.70001v-6.90015h-6.89996v-6.8999h-13.80005v-13.80005h6.90002v-6.8999h-6.90002v-6.90015h-6.89996v6.90015h-6.90002v-6.90015h6.90002v-6.8999h-6.90002v-6.90002h-6.89996v6.90002h-27.60004v6.8999h-6.89996v-13.79993h6.89996v-13.79993h-6.89996v-6.90015h6.89996v-6.8999h-6.89996v-13.80005h6.89996v13.80005h27.60004v-6.90002h-6.90002v-6.90002h20.70001v-6.8999h-6.90002v-6.90015h-6.89996v-13.79993h20.69995v6.90002h6.90002v6.8999h20.70001v-6.8999h-6.90002v-6.90002h-6.89996v-13.79993h-6.90002v6.8999h-6.90002v-6.8999h6.90002v-13.80005h6.90002v13.80005h6.89996v-6.90015h6.90002v-6.8999h-6.90002v-6.90002h13.79999v-6.90002h6.90002v6.90002h-6.90002v6.90002h13.80005v-6.90002h6.89996v6.90002h6.90002v6.8999h13.79999v-6.8999h-6.90002v-6.90002h-6.89996v-6.90002h-6.90002v-6.8999h-6.89996v-6.90015h13.79999v13.80005h6.89996v-13.80005h6.90002v13.80005h6.90002v-13.80005h6.89996v20.70007h-6.89996v6.90002h6.89996v6.8999h-6.89996v6.90015h6.89996v6.8999h-6.89996v6.90002h13.79999v6.90002h6.89996v6.8999h-6.89996v6.90015h-6.90002v6.8999h13.79999v-6.8999h6.90002v13.79993h6.90002v-13.79993h6.89996v6.8999h6.90002v6.90002h-6.90002v6.90002h13.79999v-6.90002h6.90002v6.90002Zm0-27.6001h-6.90002v6.90015h-6.89996v-6.90015h-13.79999v-6.8999h6.89996v-6.90002h13.79999v6.90002h6.90002v6.8999Zm0-62.09985v41.3999h-48.29999V10.93994h48.29999v6.90015Z" fill="#fff" stroke-width="0"/>
    <rect x="155.78998" y="100.64001" width="6.90002" height="6.90002" fill="#fff" stroke-width="0"/>
    <polygon points="128.19 114.43994 128.19 107.54004 121.28998 107.54004 121.28998 100.64001 121.28998 93.73999 114.39001 93.73999 114.39001 100.64001 114.39001 107.54004 114.39001 114.43994 121.28998 114.43994 121.28998 121.34009 128.19 121.34009 135.08997 121.34009 141.98999 121.34009 141.98999 114.43994 135.08997 114.43994 128.19 114.43994" fill="#fff" stroke-width="0"/>
    <path d="m31.58997,52.34009h20.70001V17.84009H17.78998v34.5h13.79999Zm-6.89996-13.80005v-13.80005h20.70001v20.69995h-20.70001v-6.8999Z" fill="#fff" stroke-width="0"/>
    <rect x="121.28998" y="73.04004" width="6.90002" height="6.8999" fill="#fff" stroke-width="0"/>
    <rect x="141.98999" y="86.84009" width="6.90002" height="6.8999" fill="#fff" stroke-width="0"/>
    <path d="m38.48999,169.64001h-20.70001v34.5h34.5v-34.5h-13.79999Zm6.90002,13.79993v13.80005h-20.70001v-20.69995h20.70001v6.8999Z" fill="#fff" stroke-width="0"/>
    <path d="m209.85999,0H12C5.37256,0,0,5.37256,0,12v197.80005c0,6.62744,5.37256,12,12,12h197.78998c6.59851-.03174,11.96124-5.33228,12.07001-11.93005V12c0-6.62744-5.37262-12-12-12Zm9.53998,209.85999c-.09247,5.24597-4.36334,9.45447-9.60999,9.47009H12c-5.26654-.00562-9.53448-4.27356-9.54004-9.54004V12.02002c.01105-5.2627,4.2774-9.52441,9.54004-9.53003h197.85999c5.25482.00549,9.51801,4.25525,9.53998,9.51001v197.85999Z" fill="#010101" stroke-width="0"/>
    <rect x="10.89001" y="79.93994" width="6.89996" height="6.90015" fill="#010101" stroke-width="0"/>
    <rect x="10.89001" y="93.73999" width="6.89996" height="6.90002" fill="#010101" stroke-width="0"/>
    <rect x="10.89001" y="100.64001" width="6.89996" height="6.90002" fill="#010101" stroke-width="0"/>
    <rect x="10.89001" y="114.43994" width="6.89996" height="6.90015" fill="#010101" stroke-width="0"/>
    <rect x="10.89001" y="135.14001" width="6.89996" height="6.90002" fill="#010101" stroke-width="0"/>
    <rect x="10.89001" y="142.04004" width="6.89996" height="6.8999" fill="#010101" stroke-width="0"/>
    <rect x="17.78998" y="73.04004" width="6.90002" height="6.8999" fill="#010101" stroke-width="0"/>
    <rect x="17.78998" y="107.54004" width="6.90002" height="6.8999" fill="#010101" stroke-width="0"/>
    <rect x="17.78998" y="114.43994" width="6.90002" height="6.90015" fill="#010101" stroke-width="0"/>
    <rect x="17.78998" y="121.34009" width="6.90002" height="6.8999" fill="#010101" stroke-width="0"/>
    <rect x="17.78998" y="128.23999" width="6.90002" height="6.90002" fill="#010101" stroke-width="0"/>
    <rect x="17.78998" y="135.14001" width="6.90002" height="6.90002" fill="#010101" stroke-width="0"/>
    <rect x="24.69" y="73.04004" width="6.89996" height="6.8999" fill="#010101" stroke-width="0"/>
    <rect x="24.69" y="79.93994" width="6.89996" height="6.90015" fill="#010101" stroke-width="0"/>
    <rect x="24.69" y="93.73999" width="6.89996" height="6.90002" fill="#010101" stroke-width="0"/>
    <rect x="24.69" y="107.54004" width="6.89996" height="6.8999" fill="#010101" stroke-width="0"/>
    <rect x="24.69" y="128.23999" width="6.89996" height="6.90002" fill="#010101" stroke-width="0"/>
    <rect x="24.69" y="135.14001" width="6.89996" height="6.90002" fill="#010101" stroke-width="0"/>
    <rect x="24.69" y="148.93994" width="6.89996" height="6.90015" fill="#010101" stroke-width="0"/>
    <rect x="31.58997" y="66.14001" width="6.90002" height="6.90002" fill="#010101" stroke-width="0"/>
    <rect x="31.58997" y="73.04004" width="6.90002" height="6.8999" fill="#010101" stroke-width="0"/>
    <rect x="31.58997" y="79.93994" width="6.90002" height="6.90015" fill="#010101" stroke-width="0"/>
    <rect x="31.58997" y="107.54004" width="6.90002" height="6.8999" fill="#010101" stroke-width="0"/>
    <rect x="31.58997" y="114.43994" width="6.90002" height="6.90015" fill="#010101" stroke-width="0"/>
    <rect x="31.58997" y="128.23999" width="6.90002" height="6.90002" fill="#010101" stroke-width="0"/>
    <rect x="31.58997" y="135.14001" width="6.90002" height="6.90002" fill="#010101" stroke-width="0"/>
    <rect x="38.48999" y="93.73999" width="6.90002" height="6.90002" fill="#010101" stroke-width="0"/>
    <rect x="38.48999" y="107.54004" width="6.90002" height="6.8999" fill="#010101" stroke-width="0"/>
    <rect x="38.48999" y="135.14001" width="6.90002" height="6.90002" fill="#010101" stroke-width="0"/>
    <rect x="38.48999" y="148.93994" width="6.90002" height="6.90015" fill="#010101" stroke-width="0"/>
    <rect x="45.39001" y="66.14001" width="6.89996" height="6.90002" fill="#010101" stroke-width="0"/>
    <rect x="45.39001" y="73.04004" width="6.89996" height="6.8999" fill="#010101" stroke-width="0"/>
    <rect x="45.39001" y="93.73999" width="6.89996" height="6.90002" fill="#010101" stroke-width="0"/>
    <rect x="45.39001" y="100.64001" width="6.89996" height="6.90002" fill="#010101" stroke-width="0"/>
    <rect x="45.39001" y="128.23999" width="6.89996" height="6.90002" fill="#010101" stroke-width="0"/>
    <rect x="52.28998" y="66.14001" width="6.90002" height="6.90002" fill="#010101" stroke-width="0"/>
    <rect x="52.28998" y="79.93994" width="6.90002" height="6.90015" fill="#010101" stroke-width="0"/>
    <rect x="52.28998" y="93.73999" width="6.90002" height="6.90002" fill="#010101" stroke-width="0"/>
    <rect x="52.28998" y="107.54004" width="6.90002" height="6.8999" fill="#010101" stroke-width="0"/>
    <rect x="52.28998" y="121.34009" width="6.90002" height="6.8999" fill="#010101" stroke-width="0"/>
    <rect x="52.28998" y="135.14001" width="6.90002" height="6.90002" fill="#010101" stroke-width="0"/>
    <rect x="52.28998" y="148.93994" width="6.90002" height="6.90015" fill="#010101" stroke-width="0"/>
    <rect x="59.19" y="66.14001" width="6.89996" height="6.90002" fill="#010101" stroke-width="0"/>
    <rect x="59.19" y="73.04004" width="6.89996" height="6.8999" fill="#010101" stroke-width="0"/>
    <rect x="59.19" y="86.84009" width="6.89996" height="6.8999" fill="#010101" stroke-width="0"/>
    <rect x="59.19" y="100.64001" width="6.89996" height="6.90002" fill="#010101" stroke-width="0"/>
    <rect x="59.19" y="107.54004" width="6.89996" height="6.8999" fill="#010101" stroke-width="0"/>
    <rect x="59.19" y="121.34009" width="6.89996" height="6.8999" fill="#010101" stroke-width="0"/>
    <rect x="59.19" y="142.04004" width="6.89996" height="6.8999" fill="#010101" stroke-width="0"/>
    <rect x="66.08997" y="17.84009" width="6.90002" height="6.8999" fill="#010101" stroke-width="0"/>
    <rect x="66.08997" y="24.73999" width="6.90002" height="6.90002" fill="#010101" stroke-width="0"/>
    <rect x="66.08997" y="52.34009" width="6.90002" height="6.8999" fill="#010101" stroke-width="0"/>
    <rect x="66.08997" y="73.04004" width="6.90002" height="6.8999" fill="#010101" stroke-width="0"/>
    <rect x="66.08997" y="121.34009" width="6.90002" height="6.8999" fill="#010101" stroke-width="0"/>
    <rect x="66.08997" y="142.04004" width="6.90002" height="6.8999" fill="#010101" stroke-width="0"/>
    <rect x="66.08997" y="148.93994" width="6.90002" height="6.90015" fill="#010101" stroke-width="0"/>
    <rect x="66.08997" y="162.73999" width="6.90002" height="6.90002" fill="#010101" stroke-width="0"/>
    <rect x="66.08997" y="169.64001" width="6.90002" height="6.90002" fill="#010101" stroke-width="0"/>
    <rect x="66.08997" y="183.43994" width="6.90002" height="6.90015" fill="#010101" stroke-width="0"/>
    <rect x="72.98999" y="10.93994" width="6.90002" height="6.90015" fill="#010101" stroke-width="0"/>
    <rect x="72.98999" y="17.84009" width="6.90002" height="6.8999" fill="#010101" stroke-width="0"/>
    <rect x="72.98999" y="38.54004" width="6.90002" height="6.8999" fill="#010101" stroke-width="0"/>
    <rect x="72.98999" y="45.43994" width="6.90002" height="6.90015" fill="#010101" stroke-width="0"/>
    <rect x="72.98999" y="79.93994" width="6.90002" height="6.90015" fill="#010101" stroke-width="0"/>
    <rect x="72.98999" y="107.54004" width="6.90002" height="6.8999" fill="#010101" stroke-width="0"/>
    <rect x="72.98999" y="114.43994" width="6.90002" height="6.90015" fill="#010101" stroke-width="0"/>
    <rect x="72.98999" y="128.23999" width="6.90002" height="6.90002" fill="#010101" stroke-width="0"/>
    <rect x="72.98999" y="142.04004" width="6.90002" height="6.8999" fill="#010101" stroke-width="0"/>
    <rect x="72.98999" y="148.93994" width="6.90002" height="6.90015" fill="#010101" stroke-width="0"/>
    <rect x="72.98999" y="155.84009" width="6.90002" height="6.8999" fill="#010101" stroke-width="0"/>
    <rect x="72.98999" y="162.73999" width="6.90002" height="6.90002" fill="#010101" stroke-width="0"/>
    <rect x="72.98999" y="169.64001" width="6.90002" height="6.90002" fill="#010101" stroke-width="0"/>
    <rect x="72.98999" y="197.23999" width="6.90002" height="6.90002" fill="#010101" stroke-width="0"/>
    <rect x="72.98999" y="204.14001" width="6.90002" height="6.90002" fill="#010101" stroke-width="0"/>
    <rect x="79.89001" y="17.84009" width="6.89996" height="6.8999" fill="#010101" stroke-width="0"/>
    <rect x="79.89001" y="52.34009" width="6.89996" height="6.8999" fill="#010101" stroke-width="0"/>
    <rect x="79.89001" y="59.23999" width="6.89996" height="6.90002" fill="#010101" stroke-width="0"/>
    <rect x="79.89001" y="79.93994" width="6.89996" height="6.90015" fill="#010101" stroke-width="0"/>
    <rect x="79.89001" y="93.73999" width="6.89996" height="6.90002" fill="#010101" stroke-width="0"/>
    <rect x="79.89001" y="107.54004" width="6.89996" height="6.8999" fill="#010101" stroke-width="0"/>
    <rect x="79.89001" y="128.23999" width="6.89996" height="6.90002" fill="#010101" stroke-width="0"/>
    <rect x="79.89001" y="142.04004" width="6.89996" height="6.8999" fill="#010101" stroke-width="0"/>
    <rect x="79.89001" y="155.84009" width="6.89996" height="6.8999" fill="#010101" stroke-width="0"/>
    <rect x="79.89001" y="176.54004" width="6.89996" height="6.8999" fill="#010101" stroke-width="0"/>
    <rect x="79.89001" y="204.14001" width="6.89996" height="6.90002" fill="#010101" stroke-width="0"/>
    <rect x="86.78998" y="10.93994" width="6.90002" height="6.90015" fill="#010101" stroke-width="0"/>
    <rect x="86.78998" y="31.64001" width="6.90002" height="6.90002" fill="#010101" stroke-width="0"/>
    <rect x="86.78998" y="45.43994" width="6.90002" height="6.90015" fill="#010101" stroke-width="0"/>
    <rect x="86.78998" y="59.23999" width="6.90002" height="6.90002" fill="#010101" stroke-width="0"/>
    <rect x="86.78998" y="66.14001" width="6.90002" height="6.90002" fill="#010101" stroke-width="0"/>
    <rect x="86.78998" y="79.93994" width="6.90002" height="6.90015" fill="#010101" stroke-width="0"/>
    <rect x="86.78998" y="107.54004" width="6.90002" height="6.8999" fill="#010101" stroke-width="0"/>
    <rect x="86.78998" y="114.43994" width="6.90002" height="6.90015" fill="#010101" stroke-width="0"/>
    <rect x="86.78998" y="135.14001" width="6.90002" height="6.90002" fill="#010101" stroke-width="0"/>
    <rect x="86.78998" y="142.04004" width="6.90002" height="6.8999" fill="#010101" stroke-width="0"/>
    <rect x="86.78998" y="148.93994" width="6.90002" height="6.90015" fill="#010101" stroke-width="0"/>
    <rect x="86.78998" y="162.73999" width="6.90002" height="6.90002" fill="#010101" stroke-width="0"/>
    <rect x="86.78998" y="169.64001" width="6.90002" height="6.90002" fill="#010101" stroke-width="0"/>
    <rect x="86.78998" y="183.43994" width="6.90002" height="6.90015" fill="#010101" stroke-width="0"/>
    <rect x="93.69" y="10.93994" width="6.89996" height="6.90015" fill="#010101" stroke-width="0"/>
    <rect x="93.69" y="31.64001" width="6.89996" height="6.90002" fill="#010101" stroke-width="0"/>
    <rect x="93.69" y="38.54004" width="6.89996" height="6.8999" fill="#010101" stroke-width="0"/>
    <rect x="93.69" y="52.34009" width="6.89996" height="6.8999" fill="#010101" stroke-width="0"/>
    <rect x="93.69" y="73.04004" width="6.89996" height="6.8999" fill="#010101" stroke-width="0"/>
    <rect x="93.69" y="86.84009" width="6.89996" height="6.8999" fill="#010101" stroke-width="0"/>
    <rect x="93.69" y="107.54004" width="6.89996" height="6.8999" fill="#010101" stroke-width="0"/>
    <rect x="93.69" y="121.34009" width="6.89996" height="6.8999" fill="#010101" stroke-width="0"/>
    <rect x="93.69" y="142.04004" width="6.89996" height="6.8999" fill="#010101" stroke-width="0"/>
    <rect x="93.69" y="155.84009" width="6.89996" height="6.8999" fill="#010101" stroke-width="0"/>
    <rect x="93.69" y="162.73999" width="6.89996" height="6.90002" fill="#010101" stroke-width="0"/>
    <rect x="93.69" y="183.43994" width="6.89996" height="6.90015" fill="#010101" stroke-width="0"/>
    <rect x="93.69" y="197.23999" width="6.89996" height="6.90002" fill="#010101" stroke-width="0"/>
    <rect x="100.58997" y="24.73999" width="6.90002" height="6.90002" fill="#010101" stroke-width="0"/>
    <rect x="100.58997" y="38.54004" width="6.90002" height="6.8999" fill="#010101" stroke-width="0"/>
    <rect x="100.58997" y="59.23999" width="6.90002" height="6.90002" fill="#010101" stroke-width="0"/>
    <rect x="100.58997" y="86.84009" width="6.90002" height="6.8999" fill="#010101" stroke-width="0"/>
    <rect x="100.58997" y="100.64001" width="6.90002" height="6.90002" fill="#010101" stroke-width="0"/>
    <rect x="100.58997" y="107.54004" width="6.90002" height="6.8999" fill="#010101" stroke-width="0"/>
    <rect x="100.58997" y="121.34009" width="6.90002" height="6.8999" fill="#010101" stroke-width="0"/>
    <rect x="100.58997" y="142.04004" width="6.90002" height="6.8999" fill="#010101" stroke-width="0"/>
    <rect x="100.58997" y="148.93994" width="6.90002" height="6.90015" fill="#010101" stroke-width="0"/>
    <rect x="100.58997" y="162.73999" width="6.90002" height="6.90002" fill="#010101" stroke-width="0"/>
    <rect x="100.58997" y="183.43994" width="6.90002" height="6.90015" fill="#010101" stroke-width="0"/>
    <rect x="100.58997" y="204.14001" width="6.90002" height="6.90002" fill="#010101" stroke-width="0"/>
    <rect x="107.48999" y="38.54004" width="6.90002" height="6.8999" fill="#010101" stroke-width="0"/>
    <rect x="107.48999" y="52.34009" width="6.90002" height="6.8999" fill="#010101" stroke-width="0"/>
    <rect x="107.48999" y="73.04004" width="6.90002" height="6.8999" fill="#010101" stroke-width="0"/>
    <rect x="107.48999" y="86.84009" width="6.90002" height="6.8999" fill="#010101" stroke-width="0"/>
    <rect x="107.48999" y="93.73999" width="6.90002" height="6.90002" fill="#010101" stroke-width="0"/>
    <rect x="107.48999" y="100.64001" width="6.90002" height="6.90002" fill="#010101" stroke-width="0"/>
    <rect x="107.48999" y="107.54004" width="6.90002" height="6.8999" fill="#010101" stroke-width="0"/>
    <rect x="107.48999" y="114.43994" width="6.90002" height="6.90015" fill="#010101" stroke-width="0"/>
    <rect x="107.48999" y="121.34009" width="6.90002" height="6.8999" fill="#010101" stroke-width="0"/>
    <rect x="107.48999" y="128.23999" width="6.90002" height="6.90002" fill="#010101" stroke-width="0"/>
    <rect x="107.48999" y="142.04004" width="6.90002" height="6.8999" fill="#010101" stroke-width="0"/>
    <rect x="107.48999" y="162.73999" width="6.90002" height="6.90002" fill="#010101" stroke-width="0"/>
    <rect x="107.48999" y="183.43994" width="6.90002" height="6.90015" fill="#010101" stroke-width="0"/>
    <rect x="107.48999" y="190.34009" width="6.90002" height="6.8999" fill="#010101" stroke-width="0"/>
    <rect x="107.48999" y="204.14001" width="6.90002" height="6.90002" fill="#010101" stroke-width="0"/>
    <rect x="114.39001" y="10.93994" width="6.89996" height="6.90015" fill="#010101" stroke-width="0"/>
    <rect x="114.39001" y="31.64001" width="6.89996" height="6.90002" fill="#010101" stroke-width="0"/>
    <rect x="114.39001" y="38.54004" width="6.89996" height="6.8999" fill="#010101" stroke-width="0"/>
    <rect x="114.39001" y="45.43994" width="6.89996" height="6.90015" fill="#010101" stroke-width="0"/>
    <rect x="114.39001" y="59.23999" width="6.89996" height="6.90002" fill="#010101" stroke-width="0"/>
    <rect x="114.39001" y="66.14001" width="6.89996" height="6.90002" fill="#010101" stroke-width="0"/>
    <rect x="114.39001" y="73.04004" width="6.89996" height="6.8999" fill="#010101" stroke-width="0"/>
    <rect x="114.39001" y="79.93994" width="6.89996" height="6.90015" fill="#010101" stroke-width="0"/>
    <rect x="114.39001" y="86.84009" width="6.89996" height="6.8999" fill="#010101" stroke-width="0"/>
    <rect x="114.39001" y="114.43994" width="6.89996" height="6.90015" fill="#010101" stroke-width="0"/>
    <rect x="114.39001" y="155.84009" width="6.89996" height="6.8999" fill="#010101" stroke-width="0"/>
    <rect x="114.39001" y="162.73999" width="6.89996" height="6.90002" fill="#010101" stroke-width="0"/>
    <rect x="114.39001" y="183.43994" width="6.89996" height="6.90015" fill="#010101" stroke-width="0"/>
    <rect x="114.39001" y="204.14001" width="6.89996" height="6.90002" fill="#010101" stroke-width="0"/>
    <rect x="121.28998" y="10.93994" width="6.90002" height="6.90015" fill="#010101" stroke-width="0"/>
    <rect x="121.28998" y="17.84009" width="6.90002" height="6.8999" fill="#010101" stroke-width="0"/>
    <rect x="121.28998" y="38.54004" width="6.90002" height="6.8999" fill="#010101" stroke-width="0"/>
    <rect x="121.28998" y="45.43994" width="6.90002" height="6.90015" fill="#010101" stroke-width="0"/>
    <rect x="121.28998" y="52.34009" width="6.90002" height="6.8999" fill="#010101" stroke-width="0"/>
    <rect x="121.28998" y="66.14001" width="6.90002" height="6.90002" fill="#010101" stroke-width="0"/>
    <rect x="121.28998" y="79.93994" width="6.90002" height="6.90015" fill="#010101" stroke-width="0"/>
    <rect x="121.28998" y="86.84009" width="6.90002" height="6.8999" fill="#010101" stroke-width="0"/>
    <rect x="121.28998" y="93.73999" width="6.90002" height="6.90002" fill="#010101" stroke-width="0"/>
    <rect x="121.28998" y="100.64001" width="6.90002" height="6.90002" fill="#010101" stroke-width="0"/>
    <rect x="121.28998" y="121.34009" width="6.90002" height="6.8999" fill="#010101" stroke-width="0"/>
    <rect x="121.28998" y="128.23999" width="6.90002" height="6.90002" fill="#010101" stroke-width="0"/>
    <rect x="121.28998" y="135.14001" width="6.90002" height="6.90002" fill="#010101" stroke-width="0"/>
    <rect x="121.28998" y="142.04004" width="6.90002" height="6.8999" fill="#010101" stroke-width="0"/>
    <rect x="121.28998" y="148.93994" width="6.90002" height="6.90015" fill="#010101" stroke-width="0"/>
    <rect x="121.28998" y="155.84009" width="6.90002" height="6.8999" fill="#010101" stroke-width="0"/>
    <rect x="121.28998" y="162.73999" width="6.90002" height="6.90002" fill="#010101" stroke-width="0"/>
    <rect x="121.28998" y="169.64001" width="6.90002" height="6.90002" fill="#010101" stroke-width="0"/>
    <rect x="128.19" y="24.73999" width="6.89996" height="6.90002" fill="#010101" stroke-width="0"/>
    <rect x="128.19" y="45.43994" width="6.89996" height="6.90015" fill="#010101" stroke-width="0"/>
    <rect x="128.19" y="59.23999" width="6.89996" height="6.90002" fill="#010101" stroke-width="0"/>
    <rect x="128.19" y="66.14001" width="6.89996" height="6.90002" fill="#010101" stroke-width="0"/>
    <rect x="128.19" y="73.04004" width="6.89996" height="6.8999" fill="#010101" stroke-width="0"/>
    <rect x="128.19" y="79.93994" width="6.89996" height="6.90015" fill="#010101" stroke-width="0"/>
    <rect x="128.19" y="107.54004" width="6.89996" height="6.8999" fill="#010101" stroke-width="0"/>
    <rect x="128.19" y="121.34009" width="6.89996" height="6.8999" fill="#010101" stroke-width="0"/>
    <rect x="128.19" y="148.93994" width="6.89996" height="6.90015" fill="#010101" stroke-width="0"/>
    <rect x="128.19" y="155.84009" width="6.89996" height="6.8999" fill="#010101" stroke-width="0"/>
    <rect x="128.19" y="162.73999" width="6.89996" height="6.90002" fill="#010101" stroke-width="0"/>
    <rect x="128.19" y="169.64001" width="6.89996" height="6.90002" fill="#010101" stroke-width="0"/>
    <rect x="128.19" y="183.43994" width="6.89996" height="6.90015" fill="#010101" stroke-width="0"/>
    <rect x="128.19" y="190.34009" width="6.89996" height="6.8999" fill="#010101" stroke-width="0"/>
    <rect x="128.19" y="204.14001" width="6.89996" height="6.90002" fill="#010101" stroke-width="0"/>
    <rect x="135.08997" y="10.93994" width="6.90002" height="6.90015" fill="#010101" stroke-width="0"/>
    <rect x="135.08997" y="17.84009" width="6.90002" height="6.8999" fill="#010101" stroke-width="0"/>
    <rect x="135.08997" y="31.64001" width="6.90002" height="6.90002" fill="#010101" stroke-width="0"/>
    <rect x="135.08997" y="45.43994" width="6.90002" height="6.90015" fill="#010101" stroke-width="0"/>
    <rect x="135.08997" y="52.34009" width="6.90002" height="6.8999" fill="#010101" stroke-width="0"/>
    <rect x="135.08997" y="66.14001" width="6.90002" height="6.90002" fill="#010101" stroke-width="0"/>
    <rect x="135.08997" y="86.84009" width="6.90002" height="6.8999" fill="#010101" stroke-width="0"/>
    <rect x="135.08997" y="107.54004" width="6.90002" height="6.8999" fill="#010101" stroke-width="0"/>
    <rect x="135.08997" y="121.34009" width="6.90002" height="6.8999" fill="#010101" stroke-width="0"/>
    <rect x="135.08997" y="128.23999" width="6.90002" height="6.90002" fill="#010101" stroke-width="0"/>
    <rect x="135.08997" y="142.04004" width="6.90002" height="6.8999" fill="#010101" stroke-width="0"/>
    <rect x="135.08997" y="148.93994" width="6.90002" height="6.90015" fill="#010101" stroke-width="0"/>
    <rect x="135.08997" y="204.14001" width="6.90002" height="6.90002" fill="#010101" stroke-width="0"/>
    <rect x="141.98999" y="24.73999" width="6.90002" height="6.90002" fill="#010101" stroke-width="0"/>
    <rect x="141.98999" y="31.64001" width="6.90002" height="6.90002" fill="#010101" stroke-width="0"/>
    <rect x="141.98999" y="38.54004" width="6.90002" height="6.8999" fill="#010101" stroke-width="0"/>
    <rect x="141.98999" y="45.43994" width="6.90002" height="6.90015" fill="#010101" stroke-width="0"/>
    <rect x="141.98999" y="59.23999" width="6.90002" height="6.90002" fill="#010101" stroke-width="0"/>
    <rect x="141.98999" y="79.93994" width="6.90002" height="6.90015" fill="#010101" stroke-width="0"/>
    <rect x="141.98999" y="93.73999" width="6.90002" height="6.90002" fill="#010101" stroke-width="0"/>
    <rect x="141.98999" y="100.64001" width="6.90002" height="6.90002" fill="#010101" stroke-width="0"/>
    <rect x="141.98999" y="107.54004" width="6.90002" height="6.8999" fill="#010101" stroke-width="0"/>
    <rect x="141.98999" y="114.43994" width="6.90002" height="6.90015" fill="#010101" stroke-width="0"/>
    <rect x="141.98999" y="121.34009" width="6.90002" height="6.8999" fill="#010101" stroke-width="0"/>
    <rect x="141.98999" y="135.14001" width="6.90002" height="6.90002" fill="#010101" stroke-width="0"/>
    <rect x="141.98999" y="148.93994" width="6.90002" height="6.90015" fill="#010101" stroke-width="0"/>
    <rect x="141.98999" y="155.84009" width="6.90002" height="6.8999" fill="#010101" stroke-width="0"/>
    <rect x="141.98999" y="162.73999" width="6.90002" height="6.90002" fill="#010101" stroke-width="0"/>
    <rect x="141.98999" y="169.64001" width="6.90002" height="6.90002" fill="#010101" stroke-width="0"/>
    <rect x="141.98999" y="176.54004" width="6.90002" height="6.8999" fill="#010101" stroke-width="0"/>
    <rect x="141.98999" y="183.43994" width="6.90002" height="6.90015" fill="#010101" stroke-width="0"/>
    <rect x="141.98999" y="197.23999" width="6.90002" height="6.90002" fill="#010101" stroke-width="0"/>
    <rect x="148.89001" y="10.93994" width="6.89996" height="6.90015" fill="#010101" stroke-width="0"/>
    <rect x="148.89001" y="17.84009" width="6.89996" height="6.8999" fill="#010101" stroke-width="0"/>
    <rect x="148.89001" y="24.73999" width="6.89996" height="6.90002" fill="#010101" stroke-width="0"/>
    <rect x="148.89001" y="38.54004" width="6.89996" height="6.8999" fill="#010101" stroke-width="0"/>
    <rect x="148.89001" y="52.34009" width="6.89996" height="6.8999" fill="#010101" stroke-width="0"/>
    <rect x="148.89001" y="66.14001" width="6.89996" height="6.90002" fill="#010101" stroke-width="0"/>
    <rect x="148.89001" y="86.84009" width="6.89996" height="6.8999" fill="#010101" stroke-width="0"/>
    <rect x="148.89001" y="93.73999" width="6.89996" height="6.90002" fill="#010101" stroke-width="0"/>
    <rect x="148.89001" y="100.64001" width="6.89996" height="6.90002" fill="#010101" stroke-width="0"/>
    <rect x="148.89001" y="107.54004" width="6.89996" height="6.8999" fill="#010101" stroke-width="0"/>
    <rect x="148.89001" y="135.14001" width="6.89996" height="6.90002" fill="#010101" stroke-width="0"/>
    <rect x="148.89001" y="142.04004" width="6.89996" height="6.8999" fill="#010101" stroke-width="0"/>
    <rect x="148.89001" y="148.93994" width="6.89996" height="6.90015" fill="#010101" stroke-width="0"/>
    <rect x="148.89001" y="155.84009" width="6.89996" height="6.8999" fill="#010101" stroke-width="0"/>
    <rect x="148.89001" y="162.73999" width="6.89996" height="6.90002" fill="#010101" stroke-width="0"/>
    <rect x="148.89001" y="169.64001" width="6.89996" height="6.90002" fill="#010101" stroke-width="0"/>
    <rect x="148.89001" y="176.54004" width="6.89996" height="6.8999" fill="#010101" stroke-width="0"/>
    <rect x="148.89001" y="183.43994" width="6.89996" height="6.90015" fill="#010101" stroke-width="0"/>
    <rect x="155.78998" y="66.14001" width="6.90002" height="6.90002" fill="#010101" stroke-width="0"/>
    <rect x="155.78998" y="73.04004" width="6.90002" height="6.8999" fill="#010101" stroke-width="0"/>
    <rect x="155.78998" y="79.93994" width="6.90002" height="6.90015" fill="#010101" stroke-width="0"/>
    <rect x="155.78998" y="93.73999" width="6.90002" height="6.90002" fill="#010101" stroke-width="0"/>
    <rect x="155.78998" y="107.54004" width="6.90002" height="6.8999" fill="#010101" stroke-width="0"/>
    <rect x="155.78998" y="114.43994" width="6.90002" height="6.90015" fill="#010101" stroke-width="0"/>
    <rect x="155.78998" y="121.34009" width="6.90002" height="6.8999" fill="#010101" stroke-width="0"/>
    <rect x="155.78998" y="128.23999" width="6.90002" height="6.90002" fill="#010101" stroke-width="0"/>
    <rect x="155.78998" y="142.04004" width="6.90002" height="6.8999" fill="#010101" stroke-width="0"/>
    <rect x="155.78998" y="148.93994" width="6.90002" height="6.90015" fill="#010101" stroke-width="0"/>
    <rect x="155.78998" y="176.54004" width="6.90002" height="6.8999" fill="#010101" stroke-width="0"/>
    <rect x="155.78998" y="183.43994" width="6.90002" height="6.90015" fill="#010101" stroke-width="0"/>
    <rect x="155.78998" y="204.14001" width="6.90002" height="6.90002" fill="#010101" stroke-width="0"/>
    <rect x="162.69" y="73.04004" width="6.89996" height="6.8999" fill="#010101" stroke-width="0"/>
    <rect x="162.69" y="93.73999" width="6.89996" height="6.90002" fill="#010101" stroke-width="0"/>
    <rect x="162.69" y="100.64001" width="6.89996" height="6.90002" fill="#010101" stroke-width="0"/>
    <rect x="162.69" y="107.54004" width="6.89996" height="6.8999" fill="#010101" stroke-width="0"/>
    <rect x="162.69" y="114.43994" width="6.89996" height="6.90015" fill="#010101" stroke-width="0"/>
    <rect x="162.69" y="148.93994" width="6.89996" height="6.90015" fill="#010101" stroke-width="0"/>
    <rect x="162.69" y="162.73999" width="6.89996" height="6.90002" fill="#010101" stroke-width="0"/>
    <rect x="162.69" y="176.54004" width="6.89996" height="6.8999" fill="#010101" stroke-width="0"/>
    <rect x="162.69" y="183.43994" width="6.89996" height="6.90015" fill="#010101" stroke-width="0"/>
    <rect x="162.69" y="190.34009" width="6.89996" height="6.8999" fill="#010101" stroke-width="0"/>
    <rect x="162.69" y="197.23999" width="6.89996" height="6.90002" fill="#010101" stroke-width="0"/>
    <rect x="162.69" y="204.14001" width="6.89996" height="6.90002" fill="#010101" stroke-width="0"/>
    <rect x="169.58997" y="86.84009" width="6.90002" height="6.8999" fill="#010101" stroke-width="0"/>
    <rect x="169.58997" y="93.73999" width="6.90002" height="6.90002" fill="#010101" stroke-width="0"/>
    <rect x="169.58997" y="128.23999" width="6.90002" height="6.90002" fill="#010101" stroke-width="0"/>
    <rect x="169.58997" y="142.04004" width="6.90002" height="6.8999" fill="#010101" stroke-width="0"/>
    <rect x="169.58997" y="148.93994" width="6.90002" height="6.90015" fill="#010101" stroke-width="0"/>
    <rect x="169.58997" y="176.54004" width="6.90002" height="6.8999" fill="#010101" stroke-width="0"/>
    <rect x="169.58997" y="183.43994" width="6.90002" height="6.90015" fill="#010101" stroke-width="0"/>
    <rect x="169.58997" y="204.14001" width="6.90002" height="6.90002" fill="#010101" stroke-width="0"/>
    <rect x="176.48999" y="100.64001" width="6.90002" height="6.90002" fill="#010101" stroke-width="0"/>
    <rect x="176.48999" y="114.43994" width="6.90002" height="6.90015" fill="#010101" stroke-width="0"/>
    <rect x="176.48999" y="128.23999" width="6.90002" height="6.90002" fill="#010101" stroke-width="0"/>
    <rect x="176.48999" y="142.04004" width="6.90002" height="6.8999" fill="#010101" stroke-width="0"/>
    <rect x="176.48999" y="148.93994" width="6.90002" height="6.90015" fill="#010101" stroke-width="0"/>
    <rect x="176.48999" y="155.84009" width="6.90002" height="6.8999" fill="#010101" stroke-width="0"/>
    <rect x="176.48999" y="162.73999" width="6.90002" height="6.90002" fill="#010101" stroke-width="0"/>
    <rect x="176.48999" y="169.64001" width="6.90002" height="6.90002" fill="#010101" stroke-width="0"/>
    <rect x="176.48999" y="176.54004" width="6.90002" height="6.8999" fill="#010101" stroke-width="0"/>
    <rect x="176.48999" y="197.23999" width="6.90002" height="6.90002" fill="#010101" stroke-width="0"/>
    <rect x="176.48999" y="204.14001" width="6.90002" height="6.90002" fill="#010101" stroke-width="0"/>
    <rect x="183.39001" y="73.04004" width="6.89996" height="6.8999" fill="#010101" stroke-width="0"/>
    <rect x="183.39001" y="86.84009" width="6.89996" height="6.8999" fill="#010101" stroke-width="0"/>
    <rect x="183.39001" y="93.73999" width="6.89996" height="6.90002" fill="#010101" stroke-width="0"/>
    <rect x="183.39001" y="100.64001" width="6.89996" height="6.90002" fill="#010101" stroke-width="0"/>
    <rect x="183.39001" y="128.23999" width="6.89996" height="6.90002" fill="#010101" stroke-width="0"/>
    <rect x="183.39001" y="142.04004" width="6.89996" height="6.8999" fill="#010101" stroke-width="0"/>
    <rect x="183.39001" y="148.93994" width="6.89996" height="6.90015" fill="#010101" stroke-width="0"/>
    <rect x="183.39001" y="169.64001" width="6.89996" height="6.90002" fill="#010101" stroke-width="0"/>
    <rect x="183.39001" y="176.54004" width="6.89996" height="6.8999" fill="#010101" stroke-width="0"/>
    <rect x="183.39001" y="183.43994" width="6.89996" height="6.90015" fill="#010101" stroke-width="0"/>
    <rect x="183.39001" y="190.34009" width="6.89996" height="6.8999" fill="#010101" stroke-width="0"/>
    <rect x="183.39001" y="197.23999" width="6.89996" height="6.90002" fill="#010101" stroke-width="0"/>
    <rect x="190.28998" y="66.14001" width="6.90002" height="6.90002" fill="#010101" stroke-width="0"/>
    <rect x="190.28998" y="73.04004" width="6.90002" height="6.8999" fill="#010101" stroke-width="0"/>
    <rect x="190.28998" y="93.73999" width="6.90002" height="6.90002" fill="#010101" stroke-width="0"/>
    <rect x="190.28998" y="107.54004" width="6.90002" height="6.8999" fill="#010101" stroke-width="0"/>
    <rect x="190.28998" y="114.43994" width="6.90002" height="6.90015" fill="#010101" stroke-width="0"/>
    <rect x="190.28998" y="128.23999" width="6.90002" height="6.90002" fill="#010101" stroke-width="0"/>
    <rect x="190.28998" y="155.84009" width="6.90002" height="6.8999" fill="#010101" stroke-width="0"/>
    <rect x="190.28998" y="176.54004" width="6.90002" height="6.8999" fill="#010101" stroke-width="0"/>
    <rect x="190.28998" y="190.34009" width="6.90002" height="6.8999" fill="#010101" stroke-width="0"/>
    <rect x="190.28998" y="197.23999" width="6.90002" height="6.90002" fill="#010101" stroke-width="0"/>
    <rect x="190.28998" y="204.14001" width="6.90002" height="6.90002" fill="#010101" stroke-width="0"/>
    <rect x="197.19" y="66.14001" width="6.89996" height="6.90002" fill="#010101" stroke-width="0"/>
    <rect x="197.19" y="73.04004" width="6.89996" height="6.8999" fill="#010101" stroke-width="0"/>
    <rect x="197.19" y="79.93994" width="6.89996" height="6.90015" fill="#010101" stroke-width="0"/>
    <rect x="197.19" y="107.54004" width="6.89996" height="6.8999" fill="#010101" stroke-width="0"/>
    <rect x="197.19" y="135.14001" width="6.89996" height="6.90002" fill="#010101" stroke-width="0"/>
    <rect x="204.08997" y="73.04004" width="6.90002" height="6.8999" fill="#010101" stroke-width="0"/>
    <rect x="204.08997" y="100.64001" width="6.90002" height="6.90002" fill="#010101" stroke-width="0"/>
    <rect x="204.08997" y="107.54004" width="6.90002" height="6.8999" fill="#010101" stroke-width="0"/>
    <rect x="204.08997" y="114.43994" width="6.90002" height="6.90015" fill="#010101" stroke-width="0"/>
    <rect x="204.08997" y="148.93994" width="6.90002" height="6.90015" fill="#010101" stroke-width="0"/>
    <rect x="204.08997" y="155.84009" width="6.90002" height="6.8999" fill="#010101" stroke-width="0"/>
    <rect x="204.08997" y="162.73999" width="6.90002" height="6.90002" fill="#010101" stroke-width="0"/>
    <rect x="204.08997" y="169.64001" width="6.90002" height="6.90002" fill="#010101" stroke-width="0"/>
    <rect x="204.08997" y="176.54004" width="6.90002" height="6.8999" fill="#010101" stroke-width="0"/>
    <rect x="204.08997" y="183.43994" width="6.90002" height="6.90015" fill="#010101" stroke-width="0"/>
    <rect x="204.08997" y="204.14001" width="6.90002" height="6.90002" fill="#010101" stroke-width="0"/>
    <rect x="10.89001" y="10.93994" width="6.89996" height="6.90015" fill="#010101" stroke-width="0"/>
    <rect x="10.89001" y="17.84009" width="6.89996" height="6.8999" fill="#010101" stroke-width="0"/>
    <rect x="10.89001" y="24.73999" width="6.89996" height="6.90002" fill="#010101" stroke-width="0"/>
    <rect x="10.89001" y="31.64001" width="6.89996" height="6.90002" fill="#010101" stroke-width="0"/>
    <rect x="10.89001" y="38.54004" width="6.89996" height="6.8999" fill="#010101" stroke-width="0"/>
    <rect x="10.89001" y="45.43994" width="6.89996" height="6.90015" fill="#010101" stroke-width="0"/>
    <rect x="10.89001" y="52.34009" width="6.89996" height="6.8999" fill="#010101" stroke-width="0"/>
    <rect x="17.78998" y="10.93994" width="6.90002" height="6.90015" fill="#010101" stroke-width="0"/>
    <rect x="17.78998" y="52.34009" width="6.90002" height="6.8999" fill="#010101" stroke-width="0"/>
    <rect x="24.69" y="10.93994" width="6.89996" height="6.90015" fill="#010101" stroke-width="0"/>
    <rect x="24.69" y="52.34009" width="6.89996" height="6.8999" fill="#010101" stroke-width="0"/>
    <rect x="31.58997" y="10.93994" width="6.90002" height="6.90015" fill="#010101" stroke-width="0"/>
    <rect x="31.58997" y="52.34009" width="6.90002" height="6.8999" fill="#010101" stroke-width="0"/>
    <rect x="38.48999" y="10.93994" width="6.90002" height="6.90015" fill="#010101" stroke-width="0"/>
    <rect x="38.48999" y="52.34009" width="6.90002" height="6.8999" fill="#010101" stroke-width="0"/>
    <rect x="45.39001" y="10.93994" width="6.89996" height="6.90015" fill="#010101" stroke-width="0"/>
    <rect x="45.39001" y="52.34009" width="6.89996" height="6.8999" fill="#010101" stroke-width="0"/>
    <rect x="52.28998" y="10.93994" width="6.90002" height="6.90015" fill="#010101" stroke-width="0"/>
    <rect x="52.28998" y="17.84009" width="6.90002" height="6.8999" fill="#010101" stroke-width="0"/>
    <rect x="52.28998" y="24.73999" width="6.90002" height="6.90002" fill="#010101" stroke-width="0"/>
    <rect x="52.28998" y="31.64001" width="6.90002" height="6.90002" fill="#010101" stroke-width="0"/>
    <rect x="52.28998" y="38.54004" width="6.90002" height="6.8999" fill="#010101" stroke-width="0"/>
    <rect x="52.28998" y="45.43994" width="6.90002" height="6.90015" fill="#010101" stroke-width="0"/>
    <rect x="52.28998" y="52.34009" width="6.90002" height="6.8999" fill="#010101" stroke-width="0"/>
    <rect x="24.69" y="24.73999" width="6.89996" height="6.90002" fill="#010101" stroke-width="0"/>
    <rect x="24.69" y="31.64001" width="6.89996" height="6.90002" fill="#010101" stroke-width="0"/>
    <rect x="24.69" y="38.54004" width="6.89996" height="6.8999" fill="#010101" stroke-width="0"/>
    <rect x="31.58997" y="24.73999" width="6.90002" height="6.90002" fill="#010101" stroke-width="0"/>
    <rect x="31.58997" y="31.64001" width="6.90002" height="6.90002" fill="#010101" stroke-width="0"/>
    <rect x="31.58997" y="38.54004" width="6.90002" height="6.8999" fill="#010101" stroke-width="0"/>
    <rect x="38.48999" y="24.73999" width="6.90002" height="6.90002" fill="#010101" stroke-width="0"/>
    <rect x="38.48999" y="31.64001" width="6.90002" height="6.90002" fill="#010101" stroke-width="0"/>
    <rect x="38.48999" y="38.54004" width="6.90002" height="6.8999" fill="#010101" stroke-width="0"/>
    <rect x="162.69" y="10.93994" width="6.89996" height="6.90015" fill="#010101" stroke-width="0"/>
    <rect x="162.69" y="17.84009" width="6.89996" height="6.8999" fill="#010101" stroke-width="0"/>
    <rect x="162.69" y="24.73999" width="6.89996" height="6.90002" fill="#010101" stroke-width="0"/>
    <rect x="162.69" y="31.64001" width="6.89996" height="6.90002" fill="#010101" stroke-width="0"/>
    <rect x="162.69" y="38.54004" width="6.89996" height="6.8999" fill="#010101" stroke-width="0"/>
    <rect x="162.69" y="45.43994" width="6.89996" height="6.90015" fill="#010101" stroke-width="0"/>
    <rect x="162.69" y="52.34009" width="6.89996" height="6.8999" fill="#010101" stroke-width="0"/>
    <rect x="169.58997" y="10.93994" width="6.90002" height="6.90015" fill="#010101" stroke-width="0"/>
    <rect x="169.58997" y="52.34009" width="6.90002" height="6.8999" fill="#010101" stroke-width="0"/>
    <rect x="176.48999" y="10.93994" width="6.90002" height="6.90015" fill="#010101" stroke-width="0"/>
    <rect x="176.48999" y="52.34009" width="6.90002" height="6.8999" fill="#010101" stroke-width="0"/>
    <rect x="183.39001" y="10.93994" width="6.89996" height="6.90015" fill="#010101" stroke-width="0"/>
    <rect x="183.39001" y="52.34009" width="6.89996" height="6.8999" fill="#010101" stroke-width="0"/>
    <rect x="190.28998" y="10.93994" width="6.90002" height="6.90015" fill="#010101" stroke-width="0"/>
    <rect x="190.28998" y="52.34009" width="6.90002" height="6.8999" fill="#010101" stroke-width="0"/>
    <rect x="197.19" y="10.93994" width="6.89996" height="6.90015" fill="#010101" stroke-width="0"/>
    <rect x="197.19" y="52.34009" width="6.89996" height="6.8999" fill="#010101" stroke-width="0"/>
    <rect x="204.08997" y="10.93994" width="6.90002" height="6.90015" fill="#010101" stroke-width="0"/>
    <rect x="204.08997" y="17.84009" width="6.90002" height="6.8999" fill="#010101" stroke-width="0"/>
    <rect x="204.08997" y="24.73999" width="6.90002" height="6.90002" fill="#010101" stroke-width="0"/>
    <rect x="204.08997" y="31.64001" width="6.90002" height="6.90002" fill="#010101" stroke-width="0"/>
    <rect x="204.08997" y="38.54004" width="6.90002" height="6.8999" fill="#010101" stroke-width="0"/>
    <rect x="204.08997" y="45.43994" width="6.90002" height="6.90015" fill="#010101" stroke-width="0"/>
    <rect x="204.08997" y="52.34009" width="6.90002" height="6.8999" fill="#010101" stroke-width="0"/>
    <rect x="176.48999" y="24.73999" width="6.90002" height="6.90002" fill="#010101" stroke-width="0"/>
    <rect x="176.48999" y="31.64001" width="6.90002" height="6.90002" fill="#010101" stroke-width="0"/>
    <rect x="176.48999" y="38.54004" width="6.90002" height="6.8999" fill="#010101" stroke-width="0"/>
    <rect x="183.39001" y="24.73999" width="6.89996" height="6.90002" fill="#010101" stroke-width="0"/>
    <rect x="183.39001" y="31.64001" width="6.89996" height="6.90002" fill="#010101" stroke-width="0"/>
    <rect x="183.39001" y="38.54004" width="6.89996" height="6.8999" fill="#010101" stroke-width="0"/>
    <rect x="190.28998" y="24.73999" width="6.90002" height="6.90002" fill="#010101" stroke-width="0"/>
    <rect x="190.28998" y="31.64001" width="6.90002" height="6.90002" fill="#010101" stroke-width="0"/>
    <rect x="190.28998" y="38.54004" width="6.90002" height="6.8999" fill="#010101" stroke-width="0"/>
    <rect x="10.89001" y="162.73999" width="6.89996" height="6.90002" fill="#010101" stroke-width="0"/>
    <rect x="10.89001" y="169.64001" width="6.89996" height="6.90002" fill="#010101" stroke-width="0"/>
    <rect x="10.89001" y="176.54004" width="6.89996" height="6.8999" fill="#010101" stroke-width="0"/>
    <rect x="10.89001" y="183.43994" width="6.89996" height="6.90015" fill="#010101" stroke-width="0"/>
    <rect x="10.89001" y="190.34009" width="6.89996" height="6.8999" fill="#010101" stroke-width="0"/>
    <rect x="10.89001" y="197.23999" width="6.89996" height="6.90002" fill="#010101" stroke-width="0"/>
    <rect x="10.89001" y="204.14001" width="6.89996" height="6.90002" fill="#010101" stroke-width="0"/>
    <rect x="17.78998" y="162.73999" width="6.90002" height="6.90002" fill="#010101" stroke-width="0"/>
    <rect x="17.78998" y="204.14001" width="6.90002" height="6.90002" fill="#010101" stroke-width="0"/>
    <rect x="24.69" y="162.73999" width="6.89996" height="6.90002" fill="#010101" stroke-width="0"/>
    <rect x="24.69" y="204.14001" width="6.89996" height="6.90002" fill="#010101" stroke-width="0"/>
    <rect x="31.58997" y="162.73999" width="6.90002" height="6.90002" fill="#010101" stroke-width="0"/>
    <rect x="31.58997" y="204.14001" width="6.90002" height="6.90002" fill="#010101" stroke-width="0"/>
    <rect x="38.48999" y="162.73999" width="6.90002" height="6.90002" fill="#010101" stroke-width="0"/>
    <rect x="38.48999" y="204.14001" width="6.90002" height="6.90002" fill="#010101" stroke-width="0"/>
    <rect x="45.39001" y="162.73999" width="6.89996" height="6.90002" fill="#010101" stroke-width="0"/>
    <rect x="45.39001" y="204.14001" width="6.89996" height="6.90002" fill="#010101" stroke-width="0"/>
    <rect x="52.28998" y="162.73999" width="6.90002" height="6.90002" fill="#010101" stroke-width="0"/>
    <rect x="52.28998" y="169.64001" width="6.90002" height="6.90002" fill="#010101" stroke-width="0"/>
    <rect x="52.28998" y="176.54004" width="6.90002" height="6.8999" fill="#010101" stroke-width="0"/>
    <rect x="52.28998" y="183.43994" width="6.90002" height="6.90015" fill="#010101" stroke-width="0"/>
    <rect x="52.28998" y="190.34009" width="6.90002" height="6.8999" fill="#010101" stroke-width="0"/>
    <rect x="52.28998" y="197.23999" width="6.90002" height="6.90002" fill="#010101" stroke-width="0"/>
    <rect x="52.28998" y="204.14001" width="6.90002" height="6.90002" fill="#010101" stroke-width="0"/>
    <rect x="24.69" y="176.54004" width="6.89996" height="6.8999" fill="#010101" stroke-width="0"/>
    <rect x="24.69" y="183.43994" width="6.89996" height="6.90015" fill="#010101" stroke-width="0"/>
    <rect x="24.69" y="190.34009" width="6.89996" height="6.8999" fill="#010101" stroke-width="0"/>
    <rect x="31.58997" y="176.54004" width="6.90002" height="6.8999" fill="#010101" stroke-width="0"/>
    <rect x="31.58997" y="183.43994" width="6.90002" height="6.90015" fill="#010101" stroke-width="0"/>
    <rect x="31.58997" y="190.34009" width="6.90002" height="6.8999" fill="#010101" stroke-width="0"/>
    <rect x="38.48999" y="176.54004" width="6.90002" height="6.8999" fill="#010101" stroke-width="0"/>
    <rect x="38.48999" y="183.43994" width="6.90002" height="6.90015" fill="#010101" stroke-width="0"/>
    <rect x="38.48999" y="190.34009" width="6.90002" height="6.8999" fill="#010101" stroke-width="0"/>
  </g>
</svg>