<?xml version="1.0" encoding="UTF-8"?>
<svg id="uuid-f702a232-7b31-45bb-913c-fd8dd11e7668" data-name="Capa 2" xmlns="http://www.w3.org/2000/svg" viewBox="0 0 14.91134 14.90919">
  <g id="uuid-ed595004-1623-468d-a368-9fc6855ed7f2" data-name="Capa 1">
    <g>
      <path d="m2.30731,13.59831c0-.52441-.0038-1.00975.00071-1.49502.01382-1.48651.92041-2.58206,2.37383-2.87539.05341-.01078.10397-.03564.19974-.06942-.73921-.92737-1.03062-1.95313-.76529-3.09396.1765-.75894.57871-1.39263,1.19452-1.88058,1.30788-1.03632,3.109-1.00578,4.3798.07257,1.40234,1.18997,1.5315,2.85528.36825,4.91299,2.46495.51692,2.70391,2.33694,2.51293,4.38629.68047-.10763,1.14858-.73363,1.1566-1.54994.01363-1.38613.00445-2.77249.00534-4.15875.00008-.12857-.00612-.25817.00742-.3855.03642-.34236.21834-.57256.57311-.57351.35449-.00095.5705.22736.57201.56983.00705,1.60006.07001,3.20532-.03546,4.7989-.10467,1.58152-1.26132,2.61046-2.85069,2.62742-3.02942.03233-6.05972.03436-9.08909-.00038-1.69415-.01943-2.87822-1.22913-2.89255-2.92264-.02541-3.00097-.02357-6.00244-.00107-9.00345C.0304,1.22798,1.24412.03582,2.97833.01113c1.42885-.02035,2.85823-.00752,4.28735-.00259.48729.00168.75197.21155.75798.57206.00624.37448-.26758.58823-.7841.58979-1.38623.0042-2.77248-.00148-4.15871.00259-1.25172.00368-1.90232.65225-1.90385,1.90491-.00357,2.92973-.00314,5.85947.00016,8.78919.001.89358.34931,1.43777,1.13016,1.73123Zm9.13746.11315c0-.63664.04631-1.23769-.0106-1.82881-.09053-.9403-.7267-1.54496-1.67838-1.56655-1.52855-.03468-3.05874-.02749-4.58766-.00252-.79808.01303-1.48501.48339-1.60979,1.17809-.12904.71841-.10496,1.46432-.14913,2.21979h8.03556Zm-3.99868-9.10504c-1.27423.00779-2.29567,1.03495-2.28117,2.29395.01447,1.25682,1.06111,2.27731,2.32024,2.26226,1.23993-.01481,2.25564-1.04081,2.25803-2.2809.00244-1.26509-1.0253-2.28309-2.29709-2.2753Z" fill="#063f23" stroke-width="0"/>
      <path d="m12.88524,2.17481c-.38338-.35634-.77396-.70531-1.14792-1.07128-.31594-.30919-.34575-.65688-.10454-.90221.24953-.25381.58307-.22841.90209.08717.70031.69274,1.3974,1.38881,2.08938,2.08986.35056.35515.35232.63972.00151.99594-.70137.71219-1.40839,1.41891-2.12036,2.12052-.30242.29802-.62294.32053-.86981.08805-.25421-.23939-.23596-.59513.07227-.90249.3804-.37931.77698-.74239,1.16657-1.11249-.02146-.04209-.04291-.08418-.06437-.12627-.63475,0-1.26949.00025-1.90424-.0001-.3713-.0002-.74295.00846-1.1138-.00477-.38851-.01386-.62134-.23666-.61911-.56393.0022-.32337.2449-.56168.6236-.56534.99817-.00966,1.99649-.00327,2.99475-.00327.03132-.04313.06265-.08626.09397-.12939Z" fill="#063f23" stroke-width="0"/>
    </g>
  </g>
</svg>