<?xml version="1.0" encoding="UTF-8"?>
<svg id="uuid-e511f3dc-39ad-467b-9ada-875cb56ae40f" data-name="Capa 2" xmlns="http://www.w3.org/2000/svg" viewBox="0 0 81.45468 109.41587">
  <g id="uuid-e6857f04-ffd0-4e98-8d2e-ca8fa2bf57b3" data-name="Capa 1">
    <g>
      <g>
        <path d="m3.5987,100.0592H0v-3.21258h11.34039v3.21258h-3.5987v9.07584H3.5987v-9.07584Z" fill="#ebac06" stroke-width="0"/>
        <path d="m14.95673,107.88866c-1.05331-1.01818-1.57997-2.44598-1.57997-4.28341v-6.75865h4.14299v6.63574c0,.90138.1608,1.55659.48277,1.96621.32173.40974.78699.61431,1.39567.61431.60832,0,1.07358-.20457,1.39555-.61431.32173-.40962.48277-1.06483.48277-1.96621v-6.63574h4.07272v6.75865c0,1.83742-.52666,3.26523-1.57985,4.28341-1.05331,1.01818-2.52225,1.52721-4.40632,1.52721-1.88443,0-3.353-.50903-4.40632-1.52721Z" fill="#ebac06" stroke-width="0"/>
        <path d="m28.49152,96.84661h4.14287v9.07584h5.54741v3.21258h-9.69027v-12.28843Z" fill="#ebac06" stroke-width="0"/>
        <path d="m49.11827,106.99339h-4.66952l-.82512,2.14164h-4.21326l5.37185-12.28843h4.07272l5.37185,12.28843h-4.28341l-.82512-2.14164Zm-1.14109-2.98439l-1.19373-3.08967-1.19373,3.08967h2.38746Z" fill="#ebac06" stroke-width="0"/>
        <path d="m58.19435,100.0592h-3.5987v-3.21258h11.34039v3.21258h-3.5987v9.07584h-4.14299v-9.07584Z" fill="#ebac06" stroke-width="0"/>
        <path d="m70.95679,108.59087c-1.05331-.55004-1.87843-1.31364-2.47524-2.29093-.59693-.97705-.89527-2.08025-.89527-3.30911s.29834-2.33182.89527-3.30911c.59681-.97705,1.42193-1.74065,2.47524-2.29093,1.05331-.54992,2.24093-.82512,3.56369-.82512,1.32228,0,2.51025.2752,3.56357.82512,1.05331.55028,1.87843,1.31388,2.47524,2.29093.59693.97729.89539,2.08025.89539,3.30911s-.29846,2.33206-.89539,3.30911c-.59681.97729-1.42193,1.74089-2.47524,2.29093-1.05331.54992-2.24129.825-3.56357.825-1.32276,0-2.51037-.27508-3.56369-.825Zm4.95923-2.90537c.41526-.25158.7461-.60844.99192-1.07082.2457-.46226.36861-1.00343.36861-1.62386,0-.62019-.12291-1.16136-.36861-1.62386-.24582-.46214-.57666-.819-.99192-1.07082-.4155-.25158-.88076-.37749-1.39555-.37749-.51515,0-.98041.12591-1.39567.37749-.41562.25182-.7461.60868-.99192,1.07082-.2457.4625-.36861,1.00367-.36861,1.62386,0,.62043.12291,1.1616.36861,1.62386.24582.46238.5763.81924.99192,1.07082.41526.25182.88052.37737,1.39567.37737.51479,0,.98005-.12555,1.39555-.37737Z" fill="#ebac06" stroke-width="0"/>
      </g>
      <path d="m47.47842,11.38919c.04746.1856.07785.33266.10435.50936.03645.24297.05402.46447.06131.65834,2.85401.50753,5.63966,1.33027,8.33112,2.46865,4.66465,1.97298,8.8542,4.79771,12.4522,8.39573,3.59802,3.59802,6.42274,7.78755,8.39573,12.4522,2.04241,4.82881,3.078,9.95894,3.078,15.24786s-1.0356,10.41904-3.078,15.24786c-1.97299,4.66465-4.79771,8.85418-8.39573,12.4522-3.59801,3.598-7.78755,6.42276-12.4522,8.39573-4.82881,2.04242-9.95892,3.078-15.24786,3.078s-10.41905-1.03559-15.24786-3.078c-4.66465-1.97297-8.8542-4.79773-12.4522-8.39573-3.59802-3.59802-6.42274-7.78755-8.39573-12.4522-2.04241-4.82881-3.078-9.95894-3.078-15.24786s1.0356-10.41904,3.078-15.24786c1.97299-4.66465,4.79771-8.85418,8.39573-12.4522,3.59801-3.59801,7.78755-6.42275,12.4522-8.39573,2.69015-1.13785,5.47448-1.96024,8.3271-2.46784.00809-.18514.02576-.39448.05993-.62241.02829-.18857.06086-.34309.11406-.54708C14.93612,14.59885.42729,31.16371.42729,51.12132c0,22.2571,18.04295,40.30004,40.30005,40.30004s40.30005-18.04294,40.30005-40.30004c0-19.95607-14.50667-36.51968-33.54897-39.73213Z" fill="#063f23" stroke-width="0"/>
      <path d="m41.0692,89.92285l-.02566-2.82407c.86529-.00779,1.73874-.04689,2.59611-.11608l.22711,2.81507c-.92405.07447-1.86524.11668-2.79757.12507Zm-1.01854-.00384c-.9322-.01547-1.87304-.06463-2.79673-.14593l.24786-2.81339c.85714.07555,1.73046.12111,2.59587.13562l-.04701,2.82371Zm4.83045-.21644l-.30026-2.80812c.85906-.09185,1.72423-.21596,2.57141-.36897l.50196,2.77922c-.91386.165-1.84678.29882-2.7731.39787Zm-8.64068-.03202c-.92429-.10588-1.85637-.24678-2.77023-.4191l.52306-2.77526c.8473.1596,1.7114.29031,2.56829.3884l-.32113,2.80596Zm12.41433-.56023l-.57486-2.76495c.84503-.17579,1.69353-.38468,2.52177-.62079l.77464,2.71579c-.89395.25493-1.8096.48037-2.72154.66995Zm-16.18379-.06092c-.9093-.19642-1.82303-.42869-2.71591-.69058l.79478-2.71003c.82752.2427,1.67446.45807,2.51709.63997l-.59597,2.76063Zm19.88166-.9015l-.84586-2.69444c.82332-.25853,1.64808-.55076,2.4515-.86877l1.0394,2.62585c-.86673.34319-1.75672.65856-2.64504.93736Zm-23.57198-.08886c-.88568-.28551-1.77207-.60724-2.63448-.95618l1.05931-2.61794c.79922.3234,1.62074.62151,2.44166.88616l-.86649,2.68797Zm27.16253-1.23714l-1.10871-2.59755c.79322-.33851,1.58477-.71096,2.35257-1.10692l1.29434,2.51025c-.82848.42713-1.68238.82884-2.53819,1.19421Zm-30.73389-.11248c-.85186-.37113-1.7012-.77835-2.5244-1.21028l1.31209-2.5009c.76325.40051,1.55071.77799,2.34046,1.12202l-1.12814,2.58916Zm34.17347-1.56162l-1.35993-2.47524c.75557-.41514,1.50646-.86373,2.23182-1.33343l1.53488,2.37068c-.78207.50639-1.59184.99024-2.40677,1.43799Zm-37.59243-.13298c-.81145-.45351-1.61678-.94239-2.39358-1.4531l1.55143-2.35988c.72044.47366,1.46725.92705,2.21995,1.34758l-1.3778,2.46541Zm40.84842-1.87088l-1.59676-2.32943c.71132-.48757,1.41449-1.00775,2.08996-1.54604l1.76008,2.20879c-.72823.58026-1.48632,1.14097-2.25328,1.66667Zm-44.08523-.15229c-.76408-.53181-1.51774-1.09744-2.23997-1.68106l1.77519-2.19656c.66983.54141,1.36904,1.06602,2.07809,1.55947l-1.61331,2.31815Zm47.12765-2.16047l-1.8174-2.16179c.66048-.55532,1.30933-1.14169,1.92856-1.74293l1.96753,2.02605c-.66743.64813-1.36677,1.28019-2.07869,1.87867Zm-50.15114-.17088c-.70809-.60352-1.40298-1.24014-2.06538-1.89234l1.98132-2.01262c.61455.60508,1.2592,1.19577,1.91609,1.75564l-1.83203,2.14932Zm52.95134-2.42716l-2.01981-1.974c.60388-.61791,1.19205-1.26472,1.74821-1.92232l2.15651,1.82363c-.59968.70916-1.2339,1.40646-1.88491,2.07269Zm-55.73332-.18934c-.64561-.66959-1.27527-1.37132-1.87124-2.08576l2.1685-1.80924c.55292.66276,1.13689,1.31364,1.73574,1.93467l-2.033,1.96033Zm58.26552-2.66914l-2.20304-1.76704c.53997-.67331,1.06195-1.37432,1.55131-2.08361l2.32463,1.60395c-.52774.7648-1.09061,1.52061-1.6729,2.24669Zm-60.77973-.20805c-.57762-.73051-1.13557-1.49076-1.65839-2.25952l2.33542-1.58813c.48481.71312,1.00235,1.41821,1.53824,2.09572l-2.21527,1.75193Zm63.01946-2.88354l-2.36564-1.54256c.47138-.72295.92189-1.47145,1.33883-2.22474l2.47092,1.36773c-.44979.81253-.93568,1.6199-1.44411,2.39958Zm-65.24049-.22735c-.50303-.78339-.98376-1.59508-1.42876-2.41241l2.48028-1.35046c.41262.75785.85846,1.51042,1.32492,2.23685l-2.37643,1.52601Zm67.16533-3.06833l-2.50594-1.30249c.39727-.76444.77164-1.55323,1.11255-2.34454l2.59371,1.11759c-.36777.85366-.77164,1.70468-1.20033,2.52944Zm-69.07062-.24762c-.42353-.82944-.822-1.68501-1.18414-2.54275l2.60187-1.0984c.33564.7949.70485,1.58789,1.09756,2.35689l-2.51529,1.28427Zm70.66066-3.22014l-2.62225-1.04876c.32005-.80018.61479-1.6229.8762-2.44514l2.69156.85546c-.28203.88723-.60016,1.77495-.94551,2.63844Zm-72.22996-.26968c-.33983-.86889-.65149-1.76008-.92645-2.64899l2.69804-.83459c.25481.82368.54368,1.64964.85858,2.45498l-2.63017,1.02861Zm73.47118-3.34449l-2.71339-.78351c.23923-.82836.45099-1.67614.6293-2.51961l2.76303.58398c-.19234.91038-.42077,1.82519-.67895,2.71914Zm-74.68602-.28239c-.25134-.89575-.4727-1.81224-.65832-2.72418l2.76759-.56311c.17184.84515.37713,1.69449.60988,2.5244l-2.71914.76289Zm75.56282-3.43658l-2.77766-.51101c.15589-.84742.28287-1.71206.37725-2.57003l2.80716.30878c-.10169.92543-.23863,1.85811-.40674,2.77226Zm-76.41132-.28923c-.16104-.91559-.29091-1.84924-.38576-2.77478l2.80956-.28785c.0879.85834.20829,1.72411.3577,2.57315l-2.7815.48948Zm76.91628-3.49714l-2.81435-.23539c.07171-.85684.11332-1.7304.12387-2.59635l2.82395.0343c-.01139.9328-.05624,1.874-.13346,2.79745Zm-77.39257-.29271c-.07027-.92435-.10816-1.86572-.11248-2.79793l2.82419-.01307c.00396.86541.03909,1.7391.10432,2.59683l-2.81603.21416Zm74.70113-3.48479c-.01187-.86517-.05504-1.73844-.12819-2.59557l2.81387-.24031c.0789.92387.12543,1.86494.13826,2.79703l-2.82395.03885Zm-71.9815-.27214l-2.82347-.05936c.01955-.93058.07303-1.87142.15912-2.79649l2.81196.26153c-.07974.8581-.12939,1.73094-.14761,2.59431Zm71.76062-3.26403c-.09593-.85786-.22424-1.72231-.38168-2.56937l2.7767-.51586c.1698.9138.3083,1.8463.41166,2.77154l-2.80668.31369Zm-71.51324-.27004l-2.80428-.33504c.11056-.92489.25613-1.85631.43277-2.76831l2.77262.53697c-.16368.84539-.2987,1.70888-.40111,2.56637Zm70.94666-3.22565c-.17999-.84359-.39319-1.69101-.63386-2.51865l2.71195-.78843c.25961.89311.48972,1.80757.68398,2.71782l-2.76207.58925Zm-70.35369-.26567l-2.75752-.61024c.20133-.90936.4384-1.82202.70473-2.71261l2.70571.80917c-.24678.82524-.46646,1.67099-.65293,2.51367Zm69.44415-3.15664c-.26273-.82206-.55927-1.64514-.88148-2.44634l2.62033-1.05355c.34763.86463.66767,1.75289.95127,2.64006l-2.69012.85983Zm-68.50847-.25859l-2.68341-.8804c.29007-.88418.61647-1.76889.96997-2.62951l2.61242,1.07322c-.32772.79754-.63014,1.61732-.89899,2.43669Zm67.26174-3.06203c-.34259-.79094-.71936-1.58039-1.11951-2.34639l2.50306-1.30789c.43181.82638.83819,1.67812,1.208,2.53166l-2.59156,1.12262Zm-65.99318-.24102l-2.5834-1.14121c.37533-.8494.78711-1.69677,1.22419-2.51865l2.49347,1.326c-.40495.76163-.78663,1.54688-1.13426,2.33386Zm64.42424-2.93852c-.41934-.75359-.87213-1.50197-1.34554-2.22438l2.36204-1.54807c.51059.77901.99887,1.58621,1.4513,2.39898l-2.46781,1.37348Zm-62.83659-.2219l-2.45773-1.39105c.45747-.80851.95091-1.61121,1.46629-2.38585l2.35125,1.5645c-.47797.71834-.93544,1.4627-1.35981,2.21239Zm60.96212-2.78689c-.49224-.70964-1.01626-1.40987-1.55755-2.08121l2.19872-1.77255c.58362.72391,1.14864,1.47894,1.67938,2.24411l-2.32055,1.60965Zm-59.06941-.20415l-2.30928-1.62578c.53505-.76007,1.10488-1.51066,1.69353-2.23086l2.18673,1.7873c-.54608.66809-1.07466,1.36431-1.57098,2.06934Zm56.90894-2.60559c-.55879-.65736-1.14876-1.30285-1.75349-1.91861l2.01501-1.9788c.65185.66372,1.28786,1.35963,1.89019,2.06826l-2.15172,1.82915Zm-54.73049-.18718l-2.13948-1.84366c.60688-.70413,1.24745-1.39561,1.9041-2.05513l2.00134,1.99259c-.60904.61174-1.20321,1.25309-1.76596,1.90619Zm52.30585-2.397c-.62031-.59962-1.27036-1.18426-1.93204-1.73766l1.81188-2.16634c.71336.59663,1.41413,1.22689,2.08289,1.87328l-1.96273,2.03072Zm-49.86442-.17034l-1.94882-2.04403c.67331-.64189,1.37852-1.26754,2.09632-1.85955l1.79701,2.1787c-.66576.54914-1.32,1.12946-1.94451,1.72489Zm47.19996-2.16365c-.67595-.53601-1.37996-1.05409-2.09224-1.53986l1.59124-2.33326c.76792.52372,1.52685,1.08227,2.2558,1.66025l-1.7548,2.21287Zm-44.51775-.15355l-1.7397-2.22474c.73303-.57324,1.49639-1.127,2.26887-1.64598l1.57493,2.3443c-.71636.48127-1.42432.99486-2.10411,1.52643Zm41.63913-1.90775c-.72523-.46724-1.47625-.91356-2.23206-1.32666l1.3543-2.47824c.81529.44548,1.6253.92693,2.40737,1.4308l-1.52961,2.37409Zm-38.74287-.13604l-1.51282-2.38483c.78663-.49902,1.60096-.97531,2.42044-1.41551l1.33655,2.48783c-.75965.40818-1.51474.84976-2.24417,1.31251Zm35.6779-1.63183c-.7672-.39349-1.55803-.7636-2.35053-1.09996l1.10344-2.59971c.8551.36292,1.70828.76223,2.53592,1.18678l-1.28882,2.51289Zm-32.59362-.11781l-1.2706-2.52225c.83231-.41928,1.69005-.81301,2.54935-1.17029l1.08425,2.60774c-.79646.33114-1.59148.69615-2.363,1.08479Zm29.37168-1.33859c-.80306-.31615-1.62722-.60658-2.44982-.86319l.84107-2.696c.88759.27688,1.77699.59027,2.64336.93142l-1.03461,2.62777Zm-26.12912-.09827l-1.0147-2.63568c.86985-.33486,1.76272-.64183,2.65379-.91236l.82044,2.70236c-.82572.25074-1.65324.53523-2.45953.84569Zm22.77384-1.03437c-.59297-.16795-1.1962-.32188-1.80093-.45971-.40057-.09129-.65433-.48574-.57136-.88812l.41951-2.03468c.91194.18808,1.82783.41184,2.72238.66516l-.7696,2.71734Zm-19.40669-.07381l-.74874-2.7231c.89659-.24654,1.81416-.46328,2.72742-.64429l.36746,1.85442c.10006.50494-.22223.9946-.7244,1.10774-.54448.12267-1.08716.25826-1.62174.40523Z" fill="#ebac06" stroke-width="0"/>
      <path d="m47.64398,16.13332v3.44663c5.98265,1.2994,11.47754,4.28232,15.90998,8.71475,6.09721,6.09721,9.4551,14.20386,9.4551,22.82662s-3.3579,16.7294-9.4551,22.82662c-6.09721,6.0972-14.20385,9.45509-22.82662,9.45509s-16.7294-3.35789-22.82662-9.45509c-6.09721-6.09722-9.4551-14.20385-9.4551-22.82662s3.3579-16.7294,9.4551-22.82662c4.43116-4.43115,9.92401-7.41416,15.90461-8.71411v-3.44339c-16.38093,3.22293-28.73846,17.65832-28.73846,34.98412,0,19.69472,15.96575,35.66045,35.66047,35.66045s35.66047-15.96573,35.66047-35.66045c0-17.32802-12.3598-31.76742-28.74383-34.988Z" fill="#00744c" stroke-width="0"/>
      <g>
        <path d="m39.10657,78.64916c.28424.02044.56924.03365.85244.06377.20163.02144.26604-.06131.25832-.25293-.00905-.22458.00151-.44994.00366-.67497.0011-.1148-.02027-.21143-.1656-.21261-.27809-.00225-.51708-.14378-.77494-.21817-.10033-.02894-.20013-.0648-.30276-.07973-.33742-.04907-.43209.0105-.52344.33276-.04896.17271-.08334.34963-.12206.52514-.03265.14798-.12433.22721-.26921.26759-.13655.03805-.26704.06375-.38061-.04221-.11767-.10979-.09018-.25171-.04588-.37788.15299-.43578.42438-.79271.78228-1.07835.17303-.13808.37833-.14951.59767-.0892.27291.07505.54513.17396.83565.15213.32366-.02433.3701-.09902.36919-.42563-.00062-.22566-.10675-.27849-.30287-.28198-.49468-.00878-.98963-.0205-1.48349-.04836-.20488-.01156-.33851.07281-.46246.21749-.23655.2761-.40796.59117-.57304.9117-.10976.21315-.22065.4266-.34683.63011-.09553.15409-.23945.22421-.42436.14676-.18335-.07681-.22765-.22794-.20335-.40534.00984-.07182.0386-.14517.07488-.2086.30582-.53479.63754-1.05053,1.06639-1.49925.221-.23124.47818-.354.79759-.34636.31482.00754.63358-.01418.94368.02793.71724.09737,1.4356.08734,2.15531.07923.22486-.00253.4502.00013.67473.01184.52323.02728.94337.2337,1.25986.672.25311.35053.47107.73092.80936,1.01866.12036.10237.14051.26634.04921.41298-.10678.1715-.27612.17416-.4387.1164-.20388-.07243-.36049-.21785-.46383-.40754-.13607-.24977-.27539-.49983-.38415-.76188-.13728-.33075-.33628-.50168-.71949-.44506-.39957.05903-.8052.07965-1.20887.10698-.15002.01017-.216.07309-.21435.22089.00175.15645.12044.1478.22057.15843.31351.03331.62698.07342.92681.17097.48735.15855.90213.4176,1.09247.92487.05463.14561.14885.32226-.01233.45875-.15454.13086-.34939.16824-.5502.1441-.1137-.01367-.12467-.10733-.13742-.20011-.02652-.19293-.04732-.38786-.0923-.57677-.07656-.32151-.2311-.4211-.55301-.37989-.04441.00569-.0876.02049-.13159.02999-.26095.05636-.60577.03061-.76107.18985-.18134.18593-.04681.5426-.0751.82302-.02138.21196.05216.29256.26959.29803.50957.01281,1.01861.04683,1.52779.074.13441.00718.27239.00393.40197.03431.39918.09357.50457.39598.21796.67979-.76721.75975-1.50135,1.55291-2.24904,2.3324-.10107.10538-.20919.19012-.27295.34197-.0867.20649-.43644.18341-.48373-.03382-.04991-.22932-.20345-.3621-.33132-.51959-.63349-.78029-1.27763-1.55193-1.91354-2.33027-.10884-.13322-.27759-.25966-.16891-.47001.1046-.20247.29608-.23027.50039-.22794.28487.00325.56981.00082.85472.00082.0001.00626.0002.01253.00029.01879Z" fill="#ebac06" stroke-width="0"/>
        <path d="m12.6577,49.92273c0,.28489.0039.56986-.00162.85464-.00283.14585.04497.22962.20275.22058.01488-.00085.02993.00218.04491.00222.22483.00063.47558.06399.66764-.01513.21724-.08949.12967-.3968.22315-.59457.0696-.14723.10702-.31133.14599-.47105.11258-.46134.05599-.55692-.38915-.67498-.11565-.03067-.23382-.05171-.35002-.08045-.17899-.04427-.27726-.15886-.30981-.34184-.05337-.30003.08101-.44622.3717-.35967.46313.13788.81354.44285,1.08103.83487.14805.21698.07918.46744.01439.69797-.06581.23415-.10885.46809-.08216.70951.03008.2721.0916.29919.38776.30294.23608.00298.26697-.11592.26482-.30815-.00535-.47987-.00791-.96025.00939-1.43968.00794-.21995-.07963-.36846-.23597-.50177-.26454-.22558-.56504-.39305-.86771-.55885-.18381-.10068-.37154-.19807-.54114-.31976-.18276-.13113-.21689-.3134-.10901-.46951.10746-.15552.26149-.21344.43036-.12054.61984.34099,1.20633.72968,1.66649,1.27819.13943.1662.18794.37417.18442.58971-.00661.40469.00987.81244-.03477,1.21318-.06677.5995-.0563,1.19684-.03756,1.79633.00655.20945-.00826.4197.00164.62889.03058.64619-.25496,1.11773-.77325,1.48074-.2684.18799-.54307.37195-.74836.64075-.09804.12837-.24873.17218-.4004.07-.15957-.1075-.1908-.25765-.1236-.43395.08396-.22026.23625-.38354.4369-.49669.23455-.13228.4757-.25318.71665-.3737.23531-.11769.37006-.27913.33597-.56622-.05123-.43131-.081-.86527-.11483-1.2985-.01173-.15022-.08819-.21822-.23205-.20605-.16026.01356-.11734.14559-.1239.24028-.0281.40596-.09176.80466-.25289,1.18073-.15248.35592-.38155.64348-.75766.78688-.14145.05393-.29515.12377-.4098-.02558-.12083-.15739-.18156-.34791-.14322-.54908.01975-.10364.12685-.11599.21547-.12989.14811-.02323.29914-.03185.44505-.06418.33547-.07436.42743-.19516.39873-.53433-.01382-.16332-.05292-.3249-.08626-.48609-.10135-.48987-.10244-.49389-.61678-.49261-.58453.00146-.51855-.10194-.55826.51468-.02696.41871-.02196.83946-.03181,1.25929-.00246.10492.00297.21135-.0129.31436-.0278.18046-.07231.36163-.27369.42867-.19667.06547-.30237-.08489-.41664-.2001-.73932-.74531-1.47878-1.49051-2.21331-2.24052-.07395-.07551-.15048-.1313-.23955-.1876-.223-.14096-.21617-.39359.02472-.48084.18288-.06623.3012-.18863.43343-.30376.67862-.59091,1.35309-1.1866,2.02903-1.78059.05633-.0495.11384-.09772.16904-.14845.11312-.10395.23109-.2052.39811-.13978.18107.07093.22124.2372.2273.40539.00699.19418-.00864.38912-.01227.58377-.00224.11992-.00041.23992-.00041.35988-.00869,0-.01738,0-.02607,0Z" fill="#ebac06" stroke-width="0"/>
        <path d="m66.24175,52.90339c-.01487-.2995.03218-.55083.07156-.80229.10709-.68367.13985-1.3737.11267-2.06183-.03393-.85915.30686-1.46932,1.07793-1.84737.24167-.11849.4697-.26461.71035-.38539.32246-.16183.53014-.12935.61562.07999.08694.21295-.01189.36256-.35349.52205-.20334.09493-.41262.17734-.61454.27508-.17477.08461-.34416.18071-.51372.27567-.22427.12559-.34642.30729-.36198.57582-.02511.43355-.07135.86609-.11736,1.29813-.02143.20122.04313.30925.25536.3316.24412.02573.31798-.01625.37362-.26733.05644-.25472.02026-.51127-.02864-.75933-.0695-.35251.04565-.61202.31963-.8255.23821-.18562.48645-.35194.77742-.43979.16269-.04913.33545-.07659.42321.12489.06437.14778-.05958.41787-.21371.49587-.13909.07039-.29305.052-.44027.07426-.43026.06504-.534.20711-.45693.64158.05217.29407.162.57791.15559.88239-.00226.10793.04864.16649.15792.1706.23915.00901.50813.09071.71002.00825.25998-.10619.1126-.42274.14434-.64424.04662-.32535.04957-.65699.07069-.98597.00766-.11932.00611-.23881.05362-.35328.12328-.29697.32104-.35232.54595-.1288.26558.26394.51327.54585.76984.81892.42076.44783.84227.89498,1.26388,1.34202.09088.09635.17992.18217.30998.24331.18222.08568.18613.32406.0236.43731-.86105.59996-1.61514,1.33084-2.43505,1.98096-.09395.07449-.18054.15952-.27984.2257-.20567.13705-.35572.0846-.45979-.14455-.07228-.15915-.04578-.32317-.03598-.48708.02863-.47871.04948-.95806.08942-1.43582.01825-.21828-.01848-.32318-.2747-.33963-.73002-.0469-.72939-.05974-.92184.65217-.02346.08677-.0463.17387-.06467.2618-.04316.20652.03847.35681.22872.4333.13781.05542.28868.07747.42961.12626.10596.03669.26635.00932.29279.15972.03582.20379-.04526.38614-.18684.53107-.12315.12609-.25895.03265-.37281-.0223-.37862-.18276-.57049-.51588-.68304-.90316-.1017-.34993-.1045-.70965-.10048-1.07033.00103-.0929.05471-.22121-.10858-.24551-.1602-.02384-.20499.07587-.22815.20772-.06993.398-.1347.79725-.21913,1.19224-.06008.28109.05281.45415.28336.59286.23057.13873.45891.28435.67182.44827.18043.1389.31656.3198.32736.56544.00572.13019-.03129.24422-.1548.29877-.13333.05891-.27812.05295-.36397-.07681-.20218-.3056-.48519-.53064-.75028-.77123-.39441-.35797-.59664-.78158-.52532-1.27647Z" fill="#ebac06" stroke-width="0"/>
        <g>
          <path d="m23.56674,31.31885c-.01311.13036-.15171.19646-.26435.11303-.10769-.07976-.20185-.17846-.29837-.27252-.83746-.81613-1.67579-1.63137-2.51009-2.45072-.29408-.28881-.27278-.31249-.57122.03955-.16481.19441-.32919.38919-.49272.58468-.20651.24686-.20707.24833.0447.48377,1.14968,1.07512,2.30002,2.14955,3.45,3.22435.0876.08187.17676.1623.26074.24777.12835.13063.12393.2523-.01011.38702-.36967.37156-.72428.75825-1.09786,1.1257-.33923.33367-.35158.32975-.67294.01108-.6175-.61234-1.23029-1.22944-1.84514-1.84445-.33915-.33924-.6832-.67377-1.01495-1.0201-.09891-.10325-.33488-.20536-.14557-.38809.16615-.16037.32589-.02827.46344.10722.41651.41027.83716.81633,1.25751,1.22269.50658.48973,1.01193.98079,1.52306,1.46574.213.20208.22489.20023.41311-.03129.17947-.22075.33405-.46244.52094-.67623.13176-.15073.10226-.24247-.02941-.36905-.72406-.69607-1.44127-1.39927-2.16059-2.10026-.46168-.44991-.92533-.89784-1.38351-1.35129-.27163-.26882-.25755-.28539.01294-.56077.31491-.3206.60631-.66419.91704-.98906.23367-.2443.30424-.24828.55404-.01183.97982.92745,1.95414,1.86073,2.92943,2.79296.07419.07092.16252.13783.14987.26011Z" fill="#ebac06" stroke-width="0"/>
          <path d="m20.79846,34.87356c-.01026.1074-.09458.14731-.17421.18731-.10659.05354-.21307.11863-.32667.00464-.17989-.1805-.36574-.35507-.54645-.53478-.90355-.89857-1.80128-1.80309-2.71425-2.69196-.14751-.14362-.14622-.24471-.03089-.37592.38594-.43908.76883-.88114,1.16597-1.30993.24116-.26038.32253-.25507.58444.01672.53053.55056,1.05307,1.10883,1.57845,1.66435.38115.40302.7618.80652,1.14213,1.21032.07135.07575.15798.14094.18931.24661.01307.04407.00847.08876-.03166.12073-.03708.02954-.08483.04802-.12254.01889-.10593-.08183-.21151-.16559-.30737-.25873-.82798-.80443-1.65248-1.61244-2.48097-2.41633-.27406-.26593-.27689-.26067-.5593-.00037-.19841.18287-.4044.35767-.59978.54365-.28833.27445-.29205.28434-.00915.54455.56267.51755,1.13417,1.0255,1.70017,1.53945.45504.41318.9086.82802,1.35966,1.24554.07446.06891.16854.12909.18311.24528Z" fill="#ebac06" stroke-width="0"/>
          <path d="m23.67265,32.34684c.28453-.25553.55837-.48368.78678-.75095-.03583-.16129-.16579-.22658-.26034-.31661-.90169-.85849-1.80724-1.71292-2.7112-2.56903-.08708-.08247-.17812-.1624-.2543-.25431-.09346-.11275-.06316-.22255.04138-.31507.09831-.087.19746-.13887.30887-.01449.08.08932.168.17142.25.25902.85129.90942,1.73697,1.78396,2.65634,2.62444.07747.07083.15609.14098.22786.21739.25097.26722.25515.32703-.00915.58912-.15097.1497-.26692.32273-.39296.49025-.11697.15546-.232.31582-.37046.45087-.20995.20476-.32376.20367-.53651.00821-1.02726-.94378-2.05229-1.89-3.07395-2.83984-.07579-.07046-.23888-.1413-.12079-.28486.11554-.14045.23831-.06684.34558.0357.82509.78878,1.7395,1.47332,2.59664,2.22473.16793.14722.33812.29187.51621.44542Z" fill="#ebac06" stroke-width="0"/>
        </g>
        <g>
          <path d="m63.22987,30.22961c-.2441-.29045-.48941-.59152-.74501-.88357-.2042-.23331-.21355-.23235-.45237-.00055-.77412.75138-1.5452,1.5059-2.31748,2.25919-.16089.15694-.32116.31454-.48316.47033-.0775.07453-.15996.15566-.26082.03376-.07623-.09213-.08121-.19033.00533-.28142.05154-.05425.1066-.10517.16071-.15694.94189-.90116,1.88249-1.80368,2.82667-2.70242.28834-.27446.33598-.26955.62057.01675.34777.34986.62171.7693,1.01866,1.07373.09768.07492.09652.18914.02213.28105-.09386.11595-.19992.2228-.30695.32719-1.09413,1.0671-2.19025,2.13215-3.28403,3.1996-.26888.2624-.26499.26479-.036.5693.12601.16756.24255.34255.37366.50591.23583.29385.24439.29685.5124.0426.58698-.55681,1.16892-1.11895,1.75111-1.68079.31268-.30175.62104-.60798.93274-.91076.06424-.06239.12821-.12905.20374-.17488.11173-.06777.2401-.06667.33163.02817.12306.12752-.00067.21922-.08034.2995-.62279.62752-1.24833,1.2523-1.87422,1.87672-.38191.38101-.76241.76355-1.15029,1.13843-.23301.22518-.28435.22596-.50986.00021-.39156-.39195-.77569-.79139-1.15903-1.19144-.17386-.18144-.17418-.26037.01096-.44745.18956-.19154.39279-.36955.59004-.55348,1.00815-.94006,2.01681-1.87957,3.02362-2.82108.09746-.09113.21083-.17025.27562-.31769Z" fill="#ebac06" stroke-width="0"/>
          <path d="m58.85533,33.60455c-.14535-.02098-.24262-.0896-.33054-.17228-.1761-.1656-.30094-.37188-.44403-.56387-.08918-.11966-.18308-.23689-.28492-.3458-.28607-.30594-.29993-.36588.00952-.65344.88924-.82634,1.75457-1.67658,2.60009-2.54728.15652-.16117.31387-.32157.46772-.48527.09814-.10442.20198-.1247.31424-.03045.12254.10288.14552.22597.04015.35274-.06667.08019-.14625.14994-.22234.22194-.90324.85448-1.80464,1.71093-2.71158,2.56147-.36532.3426-.33072.31383-.01103.60269.17312.15643.31666.42866.54605.42096.20471-.00687.34654-.26279.51591-.40871.85102-.73326,1.74636-1.41456,2.56379-2.1873.05286-.04997.11607-.10007.18345-.12057.07341-.02234.14693.01657.1898.08581.03658.05908.01531.11707-.02777.16309-.06127.06546-.12631.12762-.19228.18843-1.0023.92397-2.0051,1.8474-3.00746,2.7713-.06528.06016-.12395.12932-.19878.14654Z" fill="#ebac06" stroke-width="0"/>
          <path d="m65.56778,32.30422c.0027.10498-.04743.14064-.09122.18107-1.08985,1.00627-2.09884,2.09426-3.1601,3.12946-.13621.13287-.26313.24311-.46749.12621-.1954-.11179-.21948-.20946-.04862-.37126.39144-.37068.78792-.73616,1.18754-1.09805.65497-.59312,1.31743-1.17801,1.9697-1.77406.24944-.22794.24466-.24178-.0058-.48237-.23754-.22818-.49545-.43595-.72394-.67246-.15294-.15831-.2447-.14156-.39537.0083-.74329.73928-1.499,1.46608-2.25008,2.19753-.16096.15674-.31823.3174-.4826.47047-.06999.06518-.14944.18483-.25507.06667-.09371-.10484.00363-.19118.07147-.27024.02924-.03408.06004-.06687.09095-.09947.89682-.94532,1.79373-1.89054,2.69069-2.83572.04122-.04344.08213-.08724.12479-.12925.14759-.14537.29119-.13241.42565.01705.23034.25601.45804.51439.6876.77112.1697.18978.3436.37592.50926.56913.05639.06577.09339.14817.12264.19589Z" fill="#ebac06" stroke-width="0"/>
        </g>
        <g>
          <path d="m23.61322,70.1667c-.01561.11954-.12056.18698-.21386.25996-.40154.3141-.80511.62561-1.20806.93792-.53331.41334-1.06383.83039-1.60258,1.23651-.10477.07897-.20104.27042-.37464.12738-.11915-.09817-.05767-.25559.16519-.43707.31391-.25563.63385-.50385.94956-.75729.5379-.4318,1.0773-.8618,1.61047-1.29939.25499-.20929.25131-.21843.03396-.44695-.10321-.10851-.21677-.20713-.32498-.31094q-.32795-.31459-.69905-.01773c-1.02079.81234-2.04214,1.62397-3.06375,2.43528-.08205.06516-.16589.1284-.25218.18775-.10072.06927-.20504.07164-.27264-.03907-.23662-.38751-.58548-.6819-.85373-1.04248-.17799-.23926-.18004-.2776.06202-.47635.90401-.74219,1.81352-1.47767,2.72145-2.21508.04631-.03762.09403-.07554.14646-.10313.09281-.04884.17736-.02631.23157.06185.04902.07972-.00049.14204-.06104.19123-.1862.15127-.37365.301-.56138.45037-.70404.56017-1.41024,1.11765-2.11163,1.68112-.24877.19985-.24909.21139-.03403.44622.21193.23139.43662.45109.6557.67592.30732-.10397.50766-.3559.74642-.55131.90513-.74082,1.80107-1.49287,2.70045-2.24072q.403-.33511.71947.06022c.26271.32719.52622.65375.79127.97904.04734.0581.10251.1094.09955.20676Z" fill="#ebac06" stroke-width="0"/>
          <path d="m20.09869,73.63221c.22263-.08397.37829-.25123.54707-.39587.69458-.59521,1.38333-1.19721,2.07586-1.79482.14752-.12731.30158-.24705.45315-.36963.0844-.06826.18446-.14488.26594-.02061.06958.10612.16237.2348.04405.36765-.05914.06639-.13505.11845-.2059.17373-.99291.77465-1.99057,1.54333-2.97544,2.32806-.17354.13827-.26285.07172-.3702-.04971-.31781-.3595-.64063-.71485-.94878-1.08249-.236-.28156-.22691-.34093.08257-.56963.92834-.68609,1.86166-1.36545,2.79341-2.04692.0482-.03525.09881-.06761.15039-.09774.05673-.03314.11839-.03598.16136.01728.04231.05246.0322.11341-.01867.1577-.07905.06884-.16181.13347-.24386.19879-.77425.61635-1.54945,1.23151-2.32272,1.84909-.34185.27303-.32567.24658-.08812.55068.2018.25835.34677.56084.5999.78443Z" fill="#ebac06" stroke-width="0"/>
          <path d="m21.9629,68.23846c.01397.10634-.05884.16112-.12837.2196-.94066.79103-1.88086,1.58262-2.82149,2.37369-.03433.02887-.07155.05438-.10803.08061-.05096.03665-.10899.06107-.16065.01271-.06084-.05695-.07383-.13896-.02689-.2041.05129-.07117.12377-.12766.18971-.18758.78757-.71555,1.57234-1.43425,2.36647-2.14245.15202-.13556.18595-.22877.05315-.40566-.53135-.70771-.34282-.66124-.99973-.13226-.75877.61102-1.50759,1.2344-2.26078,1.85236-.06952.05705-.13478.12093-.21015.16883-.11554.07344-.22875.07242-.30987-.05572-.06387-.10087-.06267-.19723.0414-.27561.05982-.04507.11868-.09144.17913-.13565.91981-.67254,1.81634-1.3747,2.68814-2.10851.09136-.0769.19063-.14465.28819-.21389.10093-.07162.2111-.0676.27999.02988.22746.32183.55159.54913.80493.84459.06931.08084.12207.1706.13488.27914Z" fill="#ebac06" stroke-width="0"/>
        </g>
        <g>
          <path d="m60.4273,68.5501c-.31341.20486-.48392.49785-.72428.71905-.10856.09991-.0362.18595.03443.26936.26145.30873.52147.61869.7829.92745.58096.68614,1.16258,1.37171,1.74354,2.05783.07745.09147.15885.1805.22725.27846.0771.11041.08836.22181-.04069.31086-.33479.23102-.60186.53932-.91094.79945-.23821.20047-.30975.19802-.5197-.04316-.72804-.83634-1.45039-1.67763-2.17383-2.51797-.04839-.05621-.09396-.11679-.12957-.18154-.03552-.06461.01546-.11627.05651-.1541.044-.04054.10767-.06348.16003-.01134.07407.07376.14347.15255.21112.23236.63948.75433,1.27695,1.51038,1.9177,2.26363.23847.28031.24374.2796.50778.0223.20355-.19836.40123-.40276.60263-.60559-.04688-.1709-.18477-.27224-.29171-.39363-.81225-.92201-1.62793-1.841-2.44194-2.76146-.0893-.10098-.18003-.20143-.26045-.30932-.07243-.09718-.06281-.19247.0357-.2757.36599-.30927.73919-.61086,1.09163-.93497.18095-.1664.30362-.1388.44392.03324.30302.37158.6112.73893.91672,1.10848.43917.53121.88037,1.06077,1.3143,1.59622.07513.0927.24244.20556.07633.33303-.12011.09217-.25112.01856-.34983-.09851-.4926-.58421-.9875-1.16648-1.48384-1.74751-.26027-.30468-.52515-.60544-.79572-.91691Z" fill="#ebac06" stroke-width="0"/>
          <path d="m62.9585,72.16357c.33277-.24617.68252-.47477.99236-.76604-.09313-.22446-.26152-.37657-.41029-.54032-.64418-.7091-1.29344-1.41359-1.94039-2.12017-.06063-.06623-.12274-.13198-.17559-.20423-.0561-.0767-.18295-.14984-.05746-.2605.10469-.09232.23378-.15508.36415-.05969.08238.06028.14185.1528.20867.23328.75549.90977,1.50621,1.82357,2.26995,2.72636.11606.13719.11586.22813-.0016.33782-.36097.3371-.71777.67909-1.08855,1.00512-.19615.17248-.2848.1634-.44565-.0408-.71321-.90545-1.41882-1.81689-2.12546-2.7275-.03544-.04568-.06046-.10197-.07882-.15715-.00722-.02171.01174-.058.0284-.08052.0311-.04202.08264-.04519.11563-.01398.08644.08174.16922.16821.2462.25896.57136.67359,1.13914,1.3502,1.71261,2.02197.11481.1345.20593.29557.38581.38738Z" fill="#ebac06" stroke-width="0"/>
          <path d="m58.71427,70.22975c-.19928.14839-.37558.285-.55758.41355-.15657.11061-.17092.21527-.03654.36295.31224.3431.61261.69702.91786,1.04649.40376.46225.80806.92404,1.21095,1.38704.06865.07889.14037.1574.19451.24597.05336.08729.02553.17627-.05432.23817-.07626.05911-.16674.08093-.24539.01072-.0662-.05909-.12071-.13223-.17566-.20284-.67133-.86278-1.37227-1.70075-2.10113-2.51548-.06967-.07788-.13265-.16185-.19689-.24444-.07554-.0971-.08063-.20793.01418-.28072.28813-.2212.48761-.52714.75368-.76733.27067-.24434.33772-.23785.58349.03532.72083.80119,1.43916,1.60463,2.15828,2.40736.0599.06687.12026.13348.1768.20314.0466.05741.10413.12542.03436.19415-.07268.0716-.16559.06986-.24079-.00232-.07534-.07232-.139-.15663-.21171-.23189-.73699-.76302-1.4748-1.52526-2.22412-2.29986Z" fill="#ebac06" stroke-width="0"/>
        </g>
        <g>
          <path d="m53.57599,76.87475c-.10407-.22728-.12023-.44547.05951-.5941.05817-.0481.4044-.17165.52923-.2317.252-.18695.50689-.37031.75514-.56225.14202-.10982.2768-.23056.35163-.40138.03371-.07701.01847-.15279-.03428-.20895-.07087-.07543-.12809-.01496-.18537.03545-.34295.30189-.74733.49296-1.17281.64538-.18436.06604-.35805.15311-.51528.27043-.44209.32991-.53888.73085-.29552,1.22276.09374.18952.22022.35644.35986.51404.31071.35067.68177.62983,1.06411.89489.32766.22714.32906.2251.5513-.1386-.40158-.38059-.8023-.76261-1.20606-1.14137-.09873-.09262-.20405-.17921-.26147-.30459Z" fill="#03754d" stroke-width="0"/>
          <path d="m55.42575,75.56284c-.35461.2411-.67246.40933-1.04308.62046-.12367.07045-.26903.20566-.37762.31627-.0916.10542-.26615.32609.133.6005.17215.11837.33078.25677.49287.38935.15045.12305.28905.26243.4481.37271.17884.12401.24568.08169.32255-.12295.05703-.15183-.03829-.21383-.12096-.30113-.08198-.08657-.58401-.43286-.59623-.45256-.29151-.30069-.33507-.32338.05279-.64729.21587-.18028.53005-.30365.69242-.43055.11952-.09344.11397-.10054-.00385-.3448Z" fill="#03754d" stroke-width="0"/>
          <path d="m55.26646,76.33447c-.05403.02431-.10137.06352-.15183.09585-.24279.15298-.27951.31693.03878.57505.54074.26552.50968.34003.5298-.2453.00156-.04493.0005-.08996.00151-.13492.00926-.41235-.05174-.45557-.41826-.29068Z" fill="#03754d" stroke-width="0"/>
          <path d="m50.83545,77.69839c-.18529.12605-.36229.26516-.55276.38255-.35945.22153-.55538.12712-.65171-.28897-.02756-.11903.05056-.16233.11439-.21766.3382-.29322.64519-.62634,1.05766-.82533.08011-.03865.15705-.08878.22561-.14553.20915-.17312.23301-.3041.10549-.54961-.09097-.17513-.21939-.32515-.36918-.44791-.41774-.34235-.74942-.7601-1.07756-1.18893.06286-.15353.17119-.27297.30562-.38672.27327.25763.55165.50569.81293.77061.24213.2455.45166.51912.59827.83554.26129.56394.21723,1.09861-.13319,1.6157-.05608.08275-.14042.21061-.20302.24462-.0574.03119-.17882.1651-.23254.20164Z" fill="#03754d" stroke-width="0"/>
          <path d="m54.29978,73.77663c-.30965.28417-.60831.57673-.92802.84407-.16408.13723-.43382.38381-.43387.38392-.32155.27654-.64653.19029-.8138-.20375-.18189-.42844-.40156-.83424-.62533-1.24017-.18516-.33587-.1798-.34494-.52296-.2037-.08849.03643-.21401.04312-.24165.18826.24996.29196.41446.64229.56881.99853.1192.27508.25255.54275.4396.77938.41824.52914.87083.58228,1.38996.16154.10446-.08467.20407-.17614.29966-.27077.3701-.36632.72599-.74815,1.17198-1.02607-.09115-.16344-.17417-.30434-.30438-.41123Z" fill="#03754d" stroke-width="0"/>
          <path d="m51.4254,77.43892c.43015-.26207.85138-.22831,1.26654.03457.20401.12917.37719.2933.53537.47445.28615.32768.53275.68389.76061,1.05359.04556.07391.1235.16434.00784.22559-.10525.05574-.22617.18357-.35185.02171-.06421-.08268-.1259-.16732-.18992-.25015-.21958-.28409-.43496-.57306-.69882-.81773-.1353-.12547-.36612-.40817-.60713-.41735,0,0-.22457-.08799-.58932.12803-.24812.11937-.42112.33033-.58025.54839-.13006.17821-.25065.36334-.37641.54683-.20821-.0908-.24547-.20558-.13388-.39143.15377-.25611.30728-.51088.49122-.74713.04362-.05603.39056-.36341.466-.40938Z" fill="#03754d" stroke-width="0"/>
          <path d="m49.45201,74.82493c.44777.33679.84867.66921,1.21273,1.04144.24359.24907.23129.36655-.03642.58594-.36863.30211-.75255.58468-1.16944.82371-.15574-.38217-.15141-.40692.10203-.61456.02308-.0189.0464-.03855.07242-.05268.4322-.23465.54369-.31988.10088-.86217-.04701-.05757-.10272-.10846-.15715-.15951q-.31153-.29215-.12505-.76217Z" fill="#03754d" stroke-width="0"/>
          <path d="m52.32974,78.16059c.32189.44994.65253.89363.98169,1.34118-.49837.196-.51187.19192-.75455-.22171-.42432-.72326-.57452-.74307-1.22185-.18982-.09966.08517-.17536.32597-.34022.19795-.20602-.15999.054-.27274.1205-.39459.09269-.16984.21572-.32391.33249-.47967.33156-.44227.63826-.48046.88194-.25332Z" fill="#03754d" stroke-width="0"/>
          <path d="m53.83679,73.45428c-.07087-.06077-.13817-.03838-.19706.0162-.0654.06065-.1241.1285-.18748.19144-.16878.16754-.32624.34975-.53407.47103-.21133.1233-.38762-.09674-.53696-.33529-.10322-.16488-.18771-.34111-.27542-.51487-.0439-.08696-.09761-.16218-.20311-.12887-.12082.03817-.08822.14848-.06093.22515.12541.35236.27567.69592.39569,1.05004.20092.59278.52426.42835.56844.38483.11652-.11487.24013-.2227.35365-.34038.24825-.25741.48373-.52591.68292-.82429.04496-.06734.06755-.13221-.00568-.19499Z" fill="#03754d" stroke-width="0"/>
          <path d="m53.11964,73.1653c-.16154-.02307-.32837-.00632-.49156-.02131-.16995-.01563-.19314.07142-.19928.21401-.00774.18088.30768.74515.49058.60726.15748-.11869.30514-.24348.39288-.42124.11012-.22309.05133-.34389-.19261-.37872Z" fill="#03754d" stroke-width="0"/>
          <path d="m52.34799,79.64697c-.24953.01289-.48443.06002-.71569-.02177-.14006-.04953-.18547-.13928-.09473-.27278.02499-.03676.04722-.07559.07437-.11064.251-.32413.43014-.31857.63632.02792.0586.09848.13349.19883.09974.37728Z" fill="#03754d" stroke-width="0"/>
          <path d="m49.11472,76.1331c.0316-.11383-.04749-.28139.09468-.35677.16479-.08739.26951.07333.38986.14828.06233.03882.11514.094.16896.14524.12776.12167.11731.23034-.03547.32208-.03832.02301-.07633.04673-.11583.06756-.42314.2231-.51968.16215-.5022-.32638Z" fill="#03754d" stroke-width="0"/>
        </g>
        <g>
          <path d="m15.96075,62.93007c-.10407-.22728-.12023-.44547.05951-.5941.05817-.0481.4044-.17165.52923-.2317.252-.18695.50689-.37031.75514-.56225.14202-.10982.2768-.23056.35163-.40138.03371-.07701.01847-.15279-.03428-.20895-.07087-.07543-.12809-.01496-.18537.03545-.34295.30189-.74733.49296-1.17281.64538-.18436.06604-.35805.15311-.51528.27043-.44209.32991-.53888.73085-.29552,1.22276.09374.18952.22022.35644.35986.51404.31071.35067.68177.62983,1.06411.89489.32766.22714.32906.2251.5513-.1386-.40158-.38059-.8023-.76261-1.20606-1.14137-.09873-.09262-.20405-.17921-.26147-.30459Z" fill="#03754d" stroke-width="0"/>
          <path d="m17.81052,61.61816c-.35461.2411-.67246.40933-1.04308.62046-.12367.07045-.26903.20566-.37762.31627-.0916.10542-.26615.32609.133.6005.17215.11837.33078.25677.49287.38935.15045.12305.28905.26243.4481.37271.17884.12401.24568.08169.32255-.12295.05703-.15183-.03829-.21383-.12096-.30113-.08198-.08657-.58401-.43286-.59623-.45256-.29151-.30069-.33507-.32338.05279-.64729.21587-.18028.53005-.30365.69242-.43055.11952-.09344.11397-.10054-.00385-.3448Z" fill="#03754d" stroke-width="0"/>
          <path d="m17.65122,62.3898c-.05403.02431-.10137.06352-.15183.09585-.24279.15298-.27951.31693.03878.57505.54074.26552.50968.34003.5298-.2453.00156-.04493.0005-.08996.00151-.13492.00926-.41235-.05174-.45557-.41826-.29068Z" fill="#03754d" stroke-width="0"/>
          <path d="m13.22022,63.75371c-.18529.12605-.36229.26516-.55276.38255-.35945.22153-.55538.12712-.65171-.28897-.02756-.11903.05056-.16233.11439-.21766.3382-.29322.64519-.62634,1.05766-.82533.08011-.03865.15705-.08878.22561-.14553.20915-.17312.23301-.3041.10549-.54961-.09097-.17513-.21939-.32515-.36918-.44791-.41774-.34235-.74942-.7601-1.07756-1.18893.06286-.15353.17119-.27297.30562-.38672.27327.25763.55165.50569.81293.77061.24213.2455.45166.51912.59827.83554.26129.56394.21723,1.09861-.13319,1.6157-.05608.08275-.14042.21061-.20302.24462-.0574.03119-.17882.1651-.23254.20164Z" fill="#03754d" stroke-width="0"/>
          <path d="m16.68455,59.83195c-.30965.28417-.60831.57673-.92802.84407-.16408.13723-.43382.38381-.43387.38392-.32155.27654-.64653.19029-.8138-.20375-.18189-.42844-.40156-.83424-.62533-1.24017-.18516-.33587-.1798-.34494-.52296-.2037-.08849.03643-.21401.04312-.24165.18826.24996.29196.41446.64229.56881.99853.1192.27508.25255.54275.4396.77938.41824.52914.87083.58228,1.38996.16154.10446-.08467.20407-.17614.29966-.27077.3701-.36632.72599-.74815,1.17198-1.02607-.09115-.16344-.17417-.30434-.30438-.41123Z" fill="#03754d" stroke-width="0"/>
          <path d="m13.81016,63.49424c.43015-.26207.85138-.22831,1.26654.03457.20401.12917.37719.2933.53537.47445.28615.32768.53275.68389.76061,1.05359.04556.07391.1235.16434.00784.22559-.10525.05574-.22617.18357-.35185.02171-.06421-.08268-.1259-.16732-.18992-.25015-.21958-.28409-.43496-.57306-.69882-.81773-.1353-.12547-.36612-.40817-.60713-.41735,0,0-.22457-.08799-.58932.12803-.24812.11937-.42112.33033-.58025.54839-.13006.17821-.25065.36334-.37641.54683-.20821-.0908-.24547-.20558-.13388-.39143.15377-.25611.30728-.51088.49122-.74713.04362-.05603.39056-.36341.466-.40938Z" fill="#03754d" stroke-width="0"/>
          <path d="m11.83678,60.88025c.44777.33679.84867.66921,1.21273,1.04144.24359.24907.23129.36655-.03642.58594-.36863.30211-.75255.58468-1.16944.82371-.15574-.38217-.15141-.40692.10203-.61456.02308-.0189.0464-.03855.07242-.05268.4322-.23465.54369-.31988.10088-.86217-.04701-.05757-.10272-.10846-.15715-.15951q-.31153-.29215-.12505-.76217Z" fill="#03754d" stroke-width="0"/>
          <path d="m14.7145,64.21591c.32189.44994.65253.89363.98169,1.34118-.49837.196-.51187.19192-.75455-.22171-.42432-.72326-.57452-.74307-1.22185-.18982-.09966.08517-.17536.32597-.34022.19795-.20602-.15999.054-.27274.1205-.39459.09269-.16984.21572-.32391.33249-.47967.33156-.44227.63826-.48046.88194-.25332Z" fill="#03754d" stroke-width="0"/>
          <path d="m16.22155,59.5096c-.07087-.06077-.13817-.03838-.19706.0162-.0654.06065-.1241.1285-.18748.19144-.16878.16754-.32624.34975-.53407.47103-.21133.1233-.38762-.09674-.53696-.33529-.10322-.16488-.18771-.34111-.27542-.51487-.0439-.08696-.09761-.16218-.20311-.12887-.12082.03817-.08822.14848-.06093.22515.12541.35236.27567.69592.39569,1.05004.20092.59278.52426.42835.56844.38483.11652-.11487.24013-.2227.35365-.34038.24825-.25741.48373-.52591.68292-.82429.04496-.06734.06755-.13221-.00568-.19499Z" fill="#03754d" stroke-width="0"/>
          <path d="m15.50441,59.22062c-.16154-.02307-.32837-.00632-.49156-.02131-.16995-.01563-.19314.07142-.19928.21401-.00774.18088.30768.74515.49058.60726.15748-.11869.30514-.24348.39288-.42124.11012-.22309.05133-.34389-.19261-.37872Z" fill="#03754d" stroke-width="0"/>
          <path d="m14.73275,65.70229c-.24953.01289-.48443.06002-.71569-.02177-.14006-.04953-.18547-.13928-.09473-.27278.02499-.03676.04722-.07559.07437-.11064.251-.32413.43014-.31857.63632.02792.0586.09848.13349.19883.09974.37728Z" fill="#03754d" stroke-width="0"/>
          <path d="m11.49949,62.18842c.0316-.11383-.04749-.28139.09468-.35677.16479-.08739.26951.07333.38986.14828.06233.03882.11514.094.16896.14524.12776.12167.11731.23034-.03547.32208-.03832.02301-.07633.04673-.11583.06756-.42314.2231-.51968.16215-.5022-.32638Z" fill="#03754d" stroke-width="0"/>
        </g>
        <g>
          <path d="m30.42614,26.51985c-.10407-.22728-.12023-.44547.05951-.5941.05817-.0481.4044-.17165.52923-.2317.252-.18695.50689-.37031.75514-.56225.14202-.10982.2768-.23056.35163-.40138.03371-.07701.01847-.15279-.03428-.20895-.07087-.07543-.12809-.01496-.18537.03545-.34295.30189-.74733.49296-1.17281.64538-.18436.06604-.35805.15311-.51528.27043-.44209.32991-.53888.73085-.29552,1.22276.09374.18952.22022.35644.35986.51404.31071.35067.68177.62983,1.06411.89489.32766.22714.32906.2251.5513-.1386-.40158-.38059-.8023-.76261-1.20606-1.14137-.09873-.09262-.20405-.17921-.26147-.30459Z" fill="#03754d" stroke-width="0"/>
          <path d="m32.27591,25.20794c-.35461.2411-.67246.40933-1.04308.62046-.12367.07045-.26903.20566-.37762.31627-.0916.10542-.26615.32609.133.6005.17215.11837.33078.25677.49287.38935.15045.12305.28905.26243.4481.37271.17884.12401.24568.08169.32255-.12295.05703-.15183-.03829-.21383-.12096-.30113-.08198-.08657-.58401-.43286-.59623-.45256-.29151-.30069-.33507-.32338.05279-.64729.21587-.18028.53005-.30365.69242-.43055.11952-.09344.11397-.10054-.00385-.3448Z" fill="#03754d" stroke-width="0"/>
          <path d="m32.11661,25.97958c-.05403.02431-.10137.06352-.15183.09585-.24279.15298-.27951.31693.03878.57505.54074.26552.50968.34003.5298-.2453.00156-.04493.0005-.08996.00151-.13492.00926-.41235-.05174-.45557-.41826-.29068Z" fill="#03754d" stroke-width="0"/>
          <path d="m27.68561,27.34349c-.18529.12605-.36229.26516-.55276.38255-.35945.22153-.55538.12712-.65171-.28897-.02756-.11903.05056-.16233.11439-.21766.3382-.29322.64519-.62634,1.05766-.82533.08011-.03865.15705-.08878.22561-.14553.20915-.17312.23301-.3041.10549-.54961-.09097-.17513-.21939-.32515-.36918-.44791-.41774-.34235-.74942-.7601-1.07756-1.18893.06286-.15353.17119-.27297.30562-.38672.27327.25763.55165.50569.81293.77061.24213.2455.45166.51912.59827.83554.26129.56394.21723,1.09861-.13319,1.6157-.05608.08275-.14042.21061-.20302.24462-.0574.03119-.17882.1651-.23254.20164Z" fill="#03754d" stroke-width="0"/>
          <path d="m31.14993,23.42173c-.30965.28417-.60831.57673-.92802.84407-.16408.13723-.43382.38381-.43387.38392-.32155.27654-.64653.19029-.8138-.20375-.18189-.42844-.40156-.83424-.62533-1.24017-.18516-.33587-.1798-.34494-.52296-.2037-.08849.03643-.21401.04312-.24165.18826.24996.29196.41446.64229.56881.99853.1192.27508.25255.54275.4396.77938.41824.52914.87083.58228,1.38996.16154.10446-.08467.20407-.17614.29966-.27077.3701-.36632.72599-.74815,1.17198-1.02607-.09115-.16344-.17417-.30434-.30438-.41123Z" fill="#03754d" stroke-width="0"/>
          <path d="m28.27555,27.08402c.43015-.26207.85138-.22831,1.26654.03457.20401.12917.37719.2933.53537.47445.28615.32768.53275.68389.76061,1.05359.04556.07391.1235.16434.00784.22559-.10525.05574-.22617.18357-.35185.02171-.06421-.08268-.1259-.16732-.18992-.25015-.21958-.28409-.43496-.57306-.69882-.81773-.1353-.12547-.36612-.40817-.60713-.41735,0,0-.22457-.08799-.58932.12803-.24812.11937-.42112.33033-.58025.54839-.13006.17821-.25065.36334-.37641.54683-.20821-.0908-.24547-.20558-.13388-.39143.15377-.25611.30728-.51088.49122-.74713.04362-.05603.39056-.36341.466-.40938Z" fill="#03754d" stroke-width="0"/>
          <path d="m26.30217,24.47003c.44777.33679.84867.66921,1.21273,1.04144.24359.24907.23129.36655-.03642.58594-.36863.30211-.75255.58468-1.16944.82371-.15574-.38217-.15141-.40692.10203-.61456.02308-.0189.0464-.03855.07242-.05268.4322-.23465.54369-.31988.10088-.86217-.04701-.05757-.10272-.10846-.15715-.15951q-.31153-.29215-.12505-.76217Z" fill="#03754d" stroke-width="0"/>
          <path d="m29.17989,27.80569c.32189.44994.65253.89363.98169,1.34118-.49837.196-.51187.19192-.75455-.22171-.42432-.72326-.57452-.74307-1.22185-.18982-.09966.08517-.17536.32597-.34022.19795-.20602-.15999.054-.27274.1205-.39459.09269-.16984.21572-.32391.33249-.47967.33156-.44227.63826-.48046.88194-.25332Z" fill="#03754d" stroke-width="0"/>
          <path d="m30.68694,23.09939c-.07087-.06077-.13817-.03838-.19706.0162-.0654.06065-.1241.1285-.18748.19144-.16878.16754-.32624.34975-.53407.47103-.21133.1233-.38762-.09674-.53696-.33529-.10322-.16488-.18771-.34111-.27542-.51487-.0439-.08696-.09761-.16218-.20311-.12887-.12082.03817-.08822.14848-.06093.22515.12541.35236.27567.69592.39569,1.05004.20092.59278.52426.42835.56844.38483.11652-.11487.24013-.2227.35365-.34038.24825-.25741.48373-.52591.68292-.82429.04496-.06734.06755-.13221-.00568-.19499Z" fill="#03754d" stroke-width="0"/>
          <path d="m29.96979,22.8104c-.16154-.02307-.32837-.00632-.49156-.02131-.16995-.01563-.19314.07142-.19928.21401-.00774.18088.30768.74515.49058.60726.15748-.11869.30514-.24348.39288-.42124.11012-.22309.05133-.34389-.19261-.37872Z" fill="#03754d" stroke-width="0"/>
          <path d="m29.19814,29.29207c-.24953.01289-.48443.06002-.71569-.02177-.14006-.04953-.18547-.13928-.09473-.27278.02499-.03676.04722-.07559.07437-.11064.251-.32413.43014-.31857.63632.02792.0586.09848.13349.19883.09974.37728Z" fill="#03754d" stroke-width="0"/>
          <path d="m25.96487,25.7782c.0316-.11383-.04749-.28139.09468-.35677.16479-.08739.26951.07333.38986.14828.06233.03882.11514.094.16896.14524.12776.12167.11731.23034-.03547.32208-.03832.02301-.07633.04673-.11583.06756-.42314.2231-.51968.16215-.5022-.32638Z" fill="#03754d" stroke-width="0"/>
        </g>
        <g>
          <path d="m54.05,26.51985c-.10407-.22728-.12023-.44547.05951-.5941.05817-.0481.4044-.17165.52923-.2317.252-.18695.50689-.37031.75514-.56225.14202-.10982.2768-.23056.35163-.40138.03371-.07701.01847-.15279-.03428-.20895-.07087-.07543-.12809-.01496-.18537.03545-.34295.30189-.74733.49296-1.17281.64538-.18436.06604-.35805.15311-.51528.27043-.44209.32991-.53888.73085-.29552,1.22276.09374.18952.22022.35644.35986.51404.31071.35067.68177.62983,1.06411.89489.32766.22714.32906.2251.5513-.1386-.40158-.38059-.8023-.76261-1.20606-1.14137-.09873-.09262-.20405-.17921-.26147-.30459Z" fill="#03754d" stroke-width="0"/>
          <path d="m55.89977,25.20794c-.35461.2411-.67246.40933-1.04308.62046-.12367.07045-.26903.20566-.37762.31627-.0916.10542-.26615.32609.133.6005.17215.11837.33078.25677.49287.38935.15045.12305.28905.26243.4481.37271.17884.12401.24568.08169.32255-.12295.05703-.15183-.03829-.21383-.12096-.30113-.08198-.08657-.58401-.43286-.59623-.45256-.29151-.30069-.33507-.32338.05279-.64729.21587-.18028.53005-.30365.69242-.43055.11952-.09344.11397-.10054-.00385-.3448Z" fill="#03754d" stroke-width="0"/>
          <path d="m55.74047,25.97958c-.05403.02431-.10137.06352-.15183.09585-.24279.15298-.27951.31693.03878.57505.54074.26552.50968.34003.5298-.2453.00156-.04493.0005-.08996.00151-.13492.00926-.41235-.05174-.45557-.41826-.29068Z" fill="#03754d" stroke-width="0"/>
          <path d="m51.30947,27.34349c-.18529.12605-.36229.26516-.55276.38255-.35945.22153-.55538.12712-.65171-.28897-.02756-.11903.05056-.16233.11439-.21766.3382-.29322.64519-.62634,1.05766-.82533.08011-.03865.15705-.08878.22561-.14553.20915-.17312.23301-.3041.10549-.54961-.09097-.17513-.21939-.32515-.36918-.44791-.41774-.34235-.74942-.7601-1.07756-1.18893.06286-.15353.17119-.27297.30562-.38672.27327.25763.55165.50569.81293.77061.24213.2455.45166.51912.59827.83554.26129.56394.21723,1.09861-.13319,1.6157-.05608.08275-.14042.21061-.20302.24462-.0574.03119-.17882.1651-.23254.20164Z" fill="#03754d" stroke-width="0"/>
          <path d="m54.77379,23.42173c-.30965.28417-.60831.57673-.92802.84407-.16408.13723-.43382.38381-.43387.38392-.32155.27654-.64653.19029-.8138-.20375-.18189-.42844-.40156-.83424-.62533-1.24017-.18516-.33587-.1798-.34494-.52296-.2037-.08849.03643-.21401.04312-.24165.18826.24996.29196.41446.64229.56881.99853.1192.27508.25255.54275.4396.77938.41824.52914.87083.58228,1.38996.16154.10446-.08467.20407-.17614.29966-.27077.3701-.36632.72599-.74815,1.17198-1.02607-.09115-.16344-.17417-.30434-.30438-.41123Z" fill="#03754d" stroke-width="0"/>
          <path d="m51.89941,27.08402c.43015-.26207.85138-.22831,1.26654.03457.20401.12917.37719.2933.53537.47445.28615.32768.53275.68389.76061,1.05359.04556.07391.1235.16434.00784.22559-.10525.05574-.22617.18357-.35185.02171-.06421-.08268-.1259-.16732-.18992-.25015-.21958-.28409-.43496-.57306-.69882-.81773-.1353-.12547-.36612-.40817-.60713-.41735,0,0-.22457-.08799-.58932.12803-.24812.11937-.42112.33033-.58025.54839-.13006.17821-.25065.36334-.37641.54683-.20821-.0908-.24547-.20558-.13388-.39143.15377-.25611.30728-.51088.49122-.74713.04362-.05603.39056-.36341.466-.40938Z" fill="#03754d" stroke-width="0"/>
          <path d="m49.92603,24.47003c.44777.33679.84867.66921,1.21273,1.04144.24359.24907.23129.36655-.03642.58594-.36863.30211-.75255.58468-1.16944.82371-.15574-.38217-.15141-.40692.10203-.61456.02308-.0189.0464-.03855.07242-.05268.4322-.23465.54369-.31988.10088-.86217-.04701-.05757-.10272-.10846-.15715-.15951q-.31153-.29215-.12505-.76217Z" fill="#03754d" stroke-width="0"/>
          <path d="m52.80375,27.80569c.32189.44994.65253.89363.98169,1.34118-.49837.196-.51187.19192-.75455-.22171-.42432-.72326-.57452-.74307-1.22185-.18982-.09966.08517-.17536.32597-.34022.19795-.20602-.15999.054-.27274.1205-.39459.09269-.16984.21572-.32391.33249-.47967.33156-.44227.63826-.48046.88194-.25332Z" fill="#03754d" stroke-width="0"/>
          <path d="m54.3108,23.09939c-.07087-.06077-.13817-.03838-.19706.0162-.0654.06065-.1241.1285-.18748.19144-.16878.16754-.32624.34975-.53407.47103-.21133.1233-.38762-.09674-.53696-.33529-.10322-.16488-.18771-.34111-.27542-.51487-.0439-.08696-.09761-.16218-.20311-.12887-.12082.03817-.08822.14848-.06093.22515.12541.35236.27567.69592.39569,1.05004.20092.59278.52426.42835.56844.38483.11652-.11487.24013-.2227.35365-.34038.24825-.25741.48373-.52591.68292-.82429.04496-.06734.06755-.13221-.00568-.19499Z" fill="#03754d" stroke-width="0"/>
          <path d="m53.59365,22.8104c-.16154-.02307-.32837-.00632-.49156-.02131-.16995-.01563-.19314.07142-.19928.21401-.00774.18088.30768.74515.49058.60726.15748-.11869.30514-.24348.39288-.42124.11012-.22309.05133-.34389-.19261-.37872Z" fill="#03754d" stroke-width="0"/>
          <path d="m52.822,29.29207c-.24953.01289-.48443.06002-.71569-.02177-.14006-.04953-.18547-.13928-.09473-.27278.02499-.03676.04722-.07559.07437-.11064.251-.32413.43014-.31857.63632.02792.0586.09848.13349.19883.09974.37728Z" fill="#03754d" stroke-width="0"/>
          <path d="m49.58873,25.7782c.0316-.11383-.04749-.28139.09468-.35677.16479-.08739.26951.07333.38986.14828.06233.03882.11514.094.16896.14524.12776.12167.11731.23034-.03547.32208-.03832.02301-.07633.04673-.11583.06756-.42314.2231-.51968.16215-.5022-.32638Z" fill="#03754d" stroke-width="0"/>
        </g>
        <g>
          <path d="m18.07131,40.83997c-.07374-.00337-.15925-.00596-.14972-.11173.00669-.07408.03662-.14896.11883-.17311.10027-.02944.207-.03962.30418-.07614.24772-.09321.3276-.3679.06612-.44221-.16418-.04666-.67056.14172-.68266,0-.0121-.11925.58588-.21258.64755-.30514.15484-.23242.04193-.36313-.23005-.35308-.17204.00635-.29238.13886-.4947.16899.11993-.14646.22442-.26479.31813-.39113.10174-.13718.19619-.31488.05211-.44484-.1686-.15205-.28672.04088-.4102.13952-.11512.092-.15494.29341-.36648.27645-.04615-.18487.05683-.30278.12522-.42977.06363-.1181.15066-.22558.17068-.36309.01347-.09253.00486-.1798-.09388-.22936-.08011-.04024-.15226-.00901-.20455.04216-.0741.0725-.13164.16168-.19825.24208-.09963.12034-.118.30867-.3036.37113-.05742-.07995-.02429-.14685.00919-.21177.07545-.14621.15973-.28832.22678-.4382.03616-.08079.05357-.18436-.03584-.24449-.08597-.05781-.16995-.01879-.23963.05162-.03146.03178-.0681.05843-.10238.08742-.06164.09894-.12325.19786-.21035.33772-.0461-.20068.06205-.3146.10288-.44386.03022-.16397.01049-.30466-.18565-.34102-.21649-.04017-.23718.13631-.28044.27421-.04104.13081-.03261.28647-.19832.36181-.07085-.17061-.02142-.31877.011-.45988.0412-.17928.00637-.29934-.18558-.33206-.17504-.02983-.27242.0736-.28828.30539-.01279.18707.02149.38266-.10696.5705-.1452-.17387-.14589-.3355-.0936-.51393.03448-.11771-.03552-.20592-.13906-.25138-.1005-.04409-.20572-.03902-.29306.042-.07401.06865-.09555.15233-.04748.24256.10586.19868.06844.3934.01776.65015-.2051-.15242-.33193-.28447-.30468-.5002.01964-.15549-.01169-.26461-.17146-.31582-.11468-.03673-.21323-.00435-.27893.0862-.09642.13285-.03723.25141.05614.36446.07781.09427.12946.2021.10776.33133-.00976.05815-.0137.11965-.07967.14637-.06938.02811-.11745-.01306-.15217-.061-.08027-.11086-.11794-.22682-.10909-.37519.01334-.22412-.10041-.33924-.26589-.30718-.18503.03584-.24128.15769-.18617.3349.02039.06562.40902.53865.22536.66179-.15209.10197-.37464-.46931-.42354-.51849-.01054-.01061-.02044-.02246-.03263-.0308-.13982-.09605-.25475-.06496-.3388.07573-.07809.13065-.01077.23124.08909.30959.06998.05488.15911.08519.22969.13952.07025.05405.14846.12612.11548.22366-.03902.11551-.14619.13246-.25915.12884-.20526-.00658-.3624-.12962-.53893-.2078-.13597-.06017-.27904-.05424-.3361.10861-.05834.16649.00243.3081.18922.33463.13771.01957.26154.06333.37991.12607.08636.04578.21376.08077.15063.22529-.05298.12121-.14942.0587-.22895.03643-.14367-.04021-.28289-.09999-.42846-.12875-.16571-.03272-.3287.08187-.33323.22086-.00538.16356.12412.18565.24247.207.11704.02113.24247.01327.35227.05197.11283.03978.23026.13019.18878.2669-.05039.16612-.19057.0884-.29909.0587-.05683-.01558-.10902-.04839-.16303-.07401-.12188-.0579-.23415-.04468-.32631.05541-.06443.06998-.09417.15595-.0461.24719.06287.11938.16777.16704.2998.14953.16715-.02213.32961-.02012.47541.07924.03705.02523.0588.06008.05825.11092-.00073.06381-.05018.0689-.08886.08215-.13203.04528-.26506.02374-.39952.00516-.14032-.01941-.24705.04791-.25285.18821-.00616.14947.0848.25711.24245.27146.07163.00653.1491-.01384.21919-.03659.12192-.03953.23596-.02433.35012.02335.0736.03073.12733.07474.11196.16486-.01224.07174-.07108.09676-.12896.10011-.14875.00848-.3006-.00949-.44645.01343-.13095.02055-.21264.12245-.18785.26103.02337.13045.11558.21965.25429.20178.10077-.01297.19545-.06899.29439-.10103.1705-.05518.3372-.0739.49138.04315-.05873.16156-.18239.18313-.29093.22584-.13925.05479-.28097.10407-.41726.16534-.11042.04963-.23683.11324-.15556.26488.06757.12602.18523.20503.33699.14216.12357-.05119.23787-.12442.35754-.18539.13686-.0697.24277-.2144.4179-.20409.06794.1817-.03863.27858-.12016.38053-.06535.08171-.14738.15034-.21062.23342-.118.15508-.08893.22579.08439.30086.13915.06024.22357.00724.30945-.09417.09972-.11778.13056-.29916.3188-.36167.03132.20675-.053.36064-.13242.52289-.08011.16369-.00907.29368.15728.35676.17442.06617.31777-.02683.35186-.22707.01751-.10272.00238-.21129.02236-.31323.03788-.19344.17989-.30622.3042-.24605.14527.07034.09757.19802.07122.31334-.03652.15996-.13437.30365-.13285.4733.00156.17806.08712.27916.27416.28136.20029.00238.20556-.12483.19021-.27334-.01077-.10405-.02438-.21019-.01499-.31341.01929-.21211.17808-.26367.35452-.26188.20434.00206.17653.16367.17428.29467-.00126.07392-.03084.14729-.03258.22125-.00415.17602.08033.28988.26199.2968.16809.00639.27272-.15471.22634-.355-.03002-.12971-.10581-.24916-.08045-.39045.01171-.06507.04718-.109.11496-.11617.06957-.00733.1202.03332.12967.09459.01817.11784.01526.23885.03135.35718.01716.1263.07486.22868.21275.25737.09181.01909.1806.00871.24916-.06274.09793-.10201.09472-.2169.02014-.32743-.08563-.1269-.13989-.26534-.1683-.41341-.01964-.10224.03286-.17758.12907-.20274.0805-.02108.14277.02603.1727.10384.03224.08377.0546.17158.09051.25358.04507.10286.12378.18537.24155.14589.11665-.03909.13139-.15414.11709-.26417-.01796-.13808-.15787-.26096-.05091-.41856.2076.02319.27524.2163.40566.33083.11138.09777.22483.16848.34256.01911.10277-.13042.06984-.24559-.05712-.34721-.1167-.09342-.22966-.19234-.33681-.29652-.05472-.05321-.08762-.12593-.01746-.19518.05486-.05412.11054-.01725.15888.01384.10068.06475.18464.1609.29714.20198.29886.10912.52699-.18296.27597-.40811-.09924-.08901-.23383-.13272-.34334-.21012-.02802-.0198-.04734-.08047-.03994-.11599.01556-.07486.08244-.07232.14142-.05678.1293.034.24864.10325.38859.10045.12584-.00254.2465-.00953.27182-.16773.01991-.12456-.0458-.18945-.15817-.2339-.0933-.03689-.2068-.03196-.28422-.12857.0363-.02573.06778-.06331.10614-.07261.17359-.04212.41613-.05559.40995-.27052-.00671-.23337-.249-.19632-.42337-.20434Zm-.9887.82374c-.77941,1.05602-2.14657,1.20608-3.25971.58764-.03891-.02163-.07307-.05201-.10877-.07924-.70219-.53535-1.01977-2.34282.16748-3.04897.46292-.27533.96127-.40342,1.46344-.38577,1.13702.00907,1.82983.58544,2.05065,1.66128.09784.47665-.03948.89436-.31309,1.26506Z" fill="#03754d" stroke-width="0"/>
          <path d="m13.66028,40.41213c-.00517-.8601.64438-1.41914,1.55181-1.35723.37459.02556.73312.11505,1.0703.2978.69187.37499.86279,1.36837.34287,1.96648-.44796.51532-.97505.81094-1.68114.76677-.25398-.01588-.46973-.07281-.65558-.23768-.44018-.39053-.664-.8756-.62826-1.43614Zm1.4737-.94868c-.26429.01812-.59814-.00337-.85722.26378-.36098.37222-.4216.97582-.13921,1.50214.27265.50816.72064.72209,1.27282.58687.48915-.11979.8637-.40573,1.09745-.85394.27832-.53368.10167-1.04456-.44267-1.31259-.27332-.13458-.56746-.18013-.93117-.18626Z" fill="#03754d" stroke-width="0"/>
          <path d="m15.35368,41.46107c-.56266-.0208-.90301-.34785-.8749-.84072.02235-.39193.44237-.8013.79545-.77528.47138.03473.87098.38511.85984.75395-.01485.49179-.36397.87745-.7804.86205Zm-.1121-1.41316c-.29867.0095-.58403.32803-.57319.63984.01174.33793.33492.63205.69499.63248.32069.00038.63748-.36031.6175-.70307-.01928-.33071-.34535-.58177-.73929-.56925Z" fill="#03754d" stroke-width="0"/>
          <path d="m15.41315,40.71121c-.01647.14823-.08168.22017-.20318.21775-.11717-.00232-.19931-.06472-.19687-.18951.0024-.12257.0824-.18395.20098-.18799.12614-.0043.17821.07562.19907.15975Z" fill="#03754d" stroke-width="0"/>
        </g>
        <g>
          <path d="m30.56728,78.15621c.06134.06556.12602.12836.18332.19729.11589.13939.03846.26358-.06308.35165-.11011.09549-.18789-.01555-.25951-.0899-.13664-.14187-.2232-.35626-.49225-.34679-.03195.16312.06336.26877.11078.38656.05028.12488.1145.24549.15143.37406.04361.15179-.02801.2706-.17097.32171-.16285.05823-.2068-.07732-.24308-.19079-.04097-.1281-.06689-.26108-.0981-.39223-.0271-.11389-.03686-.23677-.17091-.30259-.14528.10173-.14005.24983-.11625.3987.01408.08807.05354.17215.06693.26025.02552.16794-.09355.32052-.23952.30285-.16389-.01985-.22494-.13835-.21724-.28853.00528-.10296.04216-.20415.04942-.30722.00498-.07065.00274-.16065-.08976-.18108-.11122-.02456-.15407.05858-.19286.14473-.05192.11531-.05721.22962-.01907.34977.0294.09261.00802.17725-.06055.24808-.07986.08249-.17257.11661-.28338.06963-.10129-.04294-.11956-.13438-.10254-.22463.03198-.16965.11819-.33885-.03597-.51701-.15686.0784-.20159.21557-.22395.36402-.01107.0735.00719.15452-.01612.22243-.04753.13843-.14024.24368-.30288.17951-.14373-.0567-.20518-.17468-.13706-.32621.04896-.10891.1188-.20829.17015-.31629.02583-.05431.02435-.11635-.0332-.16086-.05342-.04132-.1127-.04238-.16707-.01235-.14196.0784-.20947.20164-.22723.36411-.01786.16338-.03839.36051-.27918.29861-.15405-.03959-.17157-.23278-.06969-.46068.05493-.12288.11248-.2451.15681-.37183.01032-.0295-.01904-.08574-.04666-.11282-.04885-.04791-.11306-.04294-.15514.01103-.10089.12939-.19687.25951-.23783.42681-.0437.17853-.17697.25187-.34243.16912-.17986-.08993-.1437-.24105-.04868-.37891.09329-.13535.20558-.25852.23508-.42901.0185-.10691.03359-.21701-.08498-.27237-.09597-.0448-.17366.01835-.23599.08437-.06141.06502-.10423.14929-.17059.2076-.11775.10346-.24212.11344-.34692-.02517-.09342-.12357-.05157-.21639.06362-.30256.11879-.08887.27346-.12653.37512-.26697-.16499-.10246-.30177.02256-.44239.04875-.10887.02027-.20948.04557-.2885-.04735-.07473-.08786-.08058-.19203-.01823-.29117.06229-.09905.1554-.15051.26761-.10056.13988.06225.26315.03201.38244-.0407.03411-.02078.07536-.06272.07703-.09674.00311-.06324-.0485-.1033-.10671-.1276-.14487-.06047-.2642.01084-.37898.081-.11556.07066-.22265.08982-.32345-.01676-.08267-.08742-.08449-.19541-.03233-.29214.06326-.11734.16262-.16165.30244-.11208.20056.07111.33803-.06187.50845-.17938-.18783-.15749-.38599-.17231-.58874-.11398-.12306.03542-.20155.00781-.26515-.09442-.05417-.08709-.04031-.17026.01141-.25251.06306-.1003.14907-.14925.26575-.10549.15606.05853.30892.11154.50817-.06121-.20616-.07439-.37495-.12596-.5597-.139-.1792-.01266-.2873-.11373-.24741-.29464.04105-.18615.17986-.21695.35061-.15411.13608.05008.27015.13743.4275.05624-.04662-.15883-.19617-.17035-.31185-.22228-.12444-.05586-.2696-.08982-.23723-.27152.03589-.20149.18694-.20316.34554-.18094.10585.08581.21544.16245.45025.18902-.16623-.12867-.25748-.19931-.34874-.26994-.02752-.05292-.06846-.10306-.08012-.15928-.03925-.18924.04514-.27153.20826-.19511.12039.05639.22275.15006.3382.21861.08353.0496.1442.16592.27437.10659.06593-.12653-.06385-.14187-.11732-.19352-.118-.11401-.24846-.21513-.36615-.32942-.0682-.06624-.10178-.15735-.03612-.24236.06159-.07973.15795-.09181.24333-.04738.1053.0548.20314.12494.30061.19356.11883.08365.22248.19849.39067.18465.07451-.13921-.04386-.19151-.09937-.26572-.0627-.08382-.13637-.15974-.19559-.24576-.06253-.09083-.09477-.19998-.00601-.28606.08849-.08582.19654-.0345.29492.00299.15492.05905.20091.26328.39854.29508-.00752-.08065-.01832-.15195-.01992-.22346-.00294-.13093-.04416-.28522.11157-.35546.13427-.06056.22583.04343.30434.13331.07973.09127.10501.02385.16544-.02712.28541-.24077.44038-.18154.49676.18076.01141.07332.00451.15107.02555.22091.02358.0783.09503.11233.17545.11248.08107.00015.0833-.06549.09239-.12316.0253-.1606.0262-.40238.21546-.39068.24507.01515.2245.27058.22938.46525.00074.02955.00905.05891.01404.08952.15491-.02354.1459-.17108.19985-.26816.05856-.10538.13896-.16521.25495-.12304.13756.05001.15417.16532.12789.29631-.03172.15812-.17459.27963-.15657.456.1379.09138.1911-.02516.25225-.09616.07797-.09053.14516-.19047.21525-.28762.08241-.11424.18629-.14939.31043-.07638.1533.09017.14224.22007.05491.3449-.09395.13429-.20298.25812-.30706.38518-.03825.0467-.08153.09401-.03563.15383.06009.0783.13109.05225.19283.00072.12637-.10547.24915-.21522.3742-.32228.12393-.10609.22228-.04338.30747.05474.09408.10836.02277.19256-.05277.27063-.1308.1352-.35595.17417-.40649.39349.13832.06759.26484.00767.39646-.01586.10796-.0193.21816.01258.25038.13522.03483.13256-.06701.18548-.16841.22306-.05538.02052-.11627.0264-.17486.03797-.10664.02106-.22033.0511-.1818.19108.03496.12699.15333.13185.26019.10588.12985-.03155.25426-.08645.38458-.11494.15389-.03364.27318.02554.29812.18947.02363.15528-.05434.26632-.21284.28791-.10162.01384-.20772-.00734-.31187-.00936-.09188-.00179-.19668.00149-.2009.12184-.00553.15757.12267.14431.22481.13726.0886-.00611.17524-.04181.26379-.04719.17922-.01086.30759.10814.28329.26528-.02401.15527-.12529.23735-.28421.22172-.07287-.00717-.14264-.05729-.21463-.05935-.12039-.00345-.28863-.09537-.32982.11196-.0362.18221.02959.33051.21981.38583.08385.02438.17757.01921.26683.0195.14123.00047.28633-.00259.27741.19685-.00807.18036-.16484.28793-.35342.241-.08552-.02128-.16294-.07374-.24556-.10841-.08255-.03463-.16527-.07108-.25122-.09476-.06985-.01924-.15172-.03546-.19207.05412-.0406.09014-.02807.17922.04903.24292.09612.07941.21653.09486.33737.10716.14247.0145.2666.06669.30159.22237.02556.11371-.02883.20739-.12056.27049-.13638.0938-.25398.03097-.36591-.05783-.02266-.01798-.05382-.02524-.08103-.03739-.07102-.03988-.15896-.10235-.22235-.03683-.06194.064.01579.11412.07785.14509Zm-2.27322.04525c.59942-.00259,1.05761-.15921,1.33069-.52273.64005-.85199.76346-2.05227.03153-2.95527-.4252-.52457-.9801-.78663-1.66848-.62573-.71847.16794-1.25055.55712-1.45268,1.30697-.09464.35112-.12142.70849-.09088,1.06893.0925,1.09156.78113,1.73245,1.84981,1.72783Z" fill="#03754d" stroke-width="0"/>
          <path d="m29.60979,76.19534c-.04468.9701-.59667,1.47859-1.52735,1.44977-.94244-.02917-1.39204-.50048-1.355-1.45097.02052-.5263.22919-.99117.58164-1.37895.35501-.39061,1.13583-.45671,1.56573-.07322.43136.3848.85432.8212.73498,1.45338Zm-2.49597.15564c.0026.32452.02907.42701.15488.59318.29985.39606.88694.52797,1.42841.32098.50966-.19485.78498-.62774.70699-1.16172-.06731-.46081-.28161-.84847-.67362-1.11855-.4964-.342-1.02849-.22686-1.33765.29565-.19395.32779-.27384.69086-.27901,1.07046Z" fill="#03754d" stroke-width="0"/>
          <path d="m28.24742,75.28751c.42335.01185.83212.37421.82742.73349-.00686.52514-.34483.87707-.82118.85508-.39116-.01805-.74073-.37936-.73987-.76472.00088-.39303.39302-.8334.73364-.82386Zm.03557,1.39485c.3357.00677.63235-.2734.65315-.61684.01801-.29739-.32002-.61753-.65146-.61698-.32941.00054-.58513.29261-.58639.66973-.00099.29798.26822.5577.58469.56408Z" fill="#03754d" stroke-width="0"/>
          <path d="m28.53569,76.16927c.00512.11809-.05298.20011-.17207.20875-.12397.00898-.18615-.07838-.19494-.19267-.00783-.10173.05307-.17093.15138-.18454.11868-.01642.19753.03867.21563.16845Z" fill="#03754d" stroke-width="0"/>
        </g>
        <g>
          <path d="m68.4638,43.16322c.0562.15369-.01098.26919-.16526.31245-.1596.04474-.2618-.03555-.29507-.19125-.02492-.11664-.02518-.23852-.04957-.35532-.01997-.09563-.08692-.16145-.19077-.14936-.12034.014-.13142.11295-.11363.20333.0288.14629.08682.28755.10784.43446.02798.19558-.06581.30217-.23842.29684-.20027-.00618-.20227-.13898-.17256-.28468.0213-.10447.03207-.20434-.01327-.30759-.05953-.13552-.17527-.16102-.29754-.15045-.13386.01157-.16105.11785-.15169.23153.00612.07427.03559.14732.03661.22116.00217.15796-.08032.26695-.24013.26199-.16204-.00502-.23134-.11715-.21372-.27828.00161-.01472.00843-.0288.01142-.04347.02849-.14008.14735-.36419-.01756-.39696-.2175-.04322-.11862.20981-.15383.33644-.01185.0426-.01811.08907-.03984.1262-.06978.1192-.17592.16481-.30502.10991-.12917-.05492-.17672-.15516-.11695-.29103.06012-.13665.13135-.26928.17993-.40981.02613-.07558-.02416-.14661-.09647-.18297-.09007-.04528-.13774.02008-.17584.08574-.02215.03817-.03549.08261-.0466.12583-.03604.14033-.09841.28373-.26623.2136-.16693-.06976-.10235-.22132-.04564-.34899.0312-.07026.04151-.14299.00289-.24805-.18472.03723-.25937.2131-.38617.31586-.08859.07179-.17866.1225-.27293.01583-.07924-.08966-.09139-.19009-.00242-.2804.11545-.11718.23936-.226.35517-.34284.03044-.03071.04111-.07846.00293-.118-.03427-.03548-.07655-.04421-.11905-.01932-.14201.08316-.27914.17547-.42505.25088-.11804.06101-.23488.05999-.29988-.08571-.05935-.13307-.01496-.2293.10812-.30016.15069-.08675.32429-.145.4427-.31935-.1535-.11456-.26629-.00818-.38419.01328-.13162.02396-.28805.06287-.34249-.11217-.05544-.17824.08377-.22856.22097-.26857.05661-.01651.10974-.04499.17202-.07121-.08266-.13129-.2362-.06409-.33407-.14124-.07226-.05697-.15838-.09973-.14269-.20508.01574-.10566.11237-.1241.19773-.15305.10298-.03492.27769.05946.30288-.09672.03054-.18932-.15083-.17132-.27863-.20723-.31256-.0878-.23989-.32968-.1127-.38545.14078-.04285.45077.1626.52946-.07345.06733-.20199-.33359-.18669-.48661-.27544-.16833-.14996-.10026-.28523.19649-.26887.07212.00397.1433.02501.25603.04577-.01403-.16842-.15246-.23848-.19285-.35516-.04015-.11599-.09705-.23117.03357-.32206.11553-.08039.19494.01567.2755.07579.12809.09559.19568.26173.36249.33988.11301-.14069.01247-.23692-.03109-.33262-.04947-.1087-.11745-.20882-.17049-.31608-.04936-.09982-.07257-.20607.04837-.27278.11716-.06464.19248.01482.26966.09236.14265.14332.17042.37825.39068.4991.0368-.21238-.11141-.32687-.16722-.47287-.04159-.10879-.14413-.22128-.03906-.33052.13074-.13594.22632.00455.29857.083.05492.05963.20585.51935.30609.43178.17743-.10024-.18448-.50908-.19155-.56546-.01828-.14569.04794-.23465.18727-.25541.13409-.01997.17346.08885.21524.18732.05572.1313.02463.30645.19231.38903.06755-.15408.02475-.29729-.01511-.44069-.04129-.14853.02637-.23182.16711-.25664.13874-.02446.24029.03486.26449.1766.03228.18909-.01266.39057.09266.57733.14975-.12852.107-.28362.08881-.44138-.02034-.17636.09834-.24633.25065-.23782.17127.00957.24086.11688.17803.28028-.06822.17742-.07217.34709.02027.53528.15594-.09563.24834-.22162.23678-.40143-.00858-.1335.01306-.24375.15015-.28998.08862-.02989.1791-.01563.24595.06134.11792.13579.03984.2482-.04479.35986-.01801.02376-.03514.04933-.04678.07659-.04271.10003-.06462.202.01371.29455.01487.01758.06044.02958.07941.01987.1008-.05161.14937-.14389.16097-.2523.00941-.08798-.01332-.18383.0135-.26444.03763-.11308.14378-.15065.25723-.12531.11798.02636.1785.10896.15935.23158-.01989.12738-.13215.23588-.09209.37775.12667.01874.15972-.0817.21432-.14242.10404-.11571.21825-.18054.34034-.04695.14758.16147.02993.26849-.10337.36072-.0122.00845-.0273.0126-.0401.02033-.11414.06898-.27413.13878-.1803.29876.07912.13492.24459.08611.37169.04604.09836-.03101.184-.10027.28044-.14004.13672-.05638.27547-.06153.34016.10145.06616.16667-.04105.26414-.18475.29369-.14992.03083-.28947.07665-.4165.15752-.05265.03352-.07795.09704-.03541.15216.02267.02937.07952.05707.11252.04937.13081-.03052.26008-.07036.38639-.11645.09151-.0334.1766-.03351.25735.01713.06528.04094.11523.09982.10962.18266-.00576.08503-.06109.13342-.14174.15056-.1588.03375-.33503.0018-.47111.11979-.05724.04964-.1108.11389-.07221.1935.03826.07893.11467.08548.19266.05692.09813-.03594.19312-.08792.29431-.10624.13777-.02495.23923.05017.26147.18509.02335.1416-.06372.2286-.20119.2432-.14758.01567-.3013-.02563-.44327.04232-.0515.02465-.11146.05681-.10136.12659.01014.07002.07415.0934.13373.09712.08901.00556.1789-.00074.26832-.00437.13158-.00535.25781.0187.24969.17939-.00796.15759-.11939.23664-.27787.22588-.10383-.00704-.20654-.04062-.30992-.04147-.10729-.00088-.23196.03202-.22757.16113.00347.1018.11902.11978.21152.1215.0897.00166.1813-.01637.26892-.00381.14243.02042.21349.11613.17611.2565-.03493.13119-.13058.20027-.27251.15667-.12815-.03937-.2505-.10085-.38046-.12989-.08477-.01894-.18152-.00425-.23796.1058.05763.16124.23034.15445.35235.21963.09183.04905.19618.07431.28938.12123.08128.04092.16134.10121.11553.20877-.03645.08557-.10779.14047-.20884.14819-.12902.00986-.22896-.05801-.33434-.11479-.14321-.07716-.25526-.21106-.45943-.24389-.06059.2524.14049.36561.25981.51238.07206.08864.13843.18612.02816.26906-.09304.06999-.21924.11346-.32099-.01216-.02829-.03493-.05553-.07072-.08306-.10626-.0456-.0589-.09105-.11792-.1367-.17656-.02808-.0218-.05754-.06692-.09339-.02864-.03134.03345.08018.32609.12109.43793Zm-1.62699-4.40499c-.18078-.00449-.35666.02072-.53387.05774-.67308.14063-1.05509.58664-1.26287,1.20554-.20744.61788-.02414,1.14706.41094,1.60447.36848.38739.84148.59684,1.35614.62029.57066.026,1.15139-.06045,1.57918-.49948.84766-.86995.53212-2.34292-.58777-2.79805-.30684-.12471-.62955-.18637-.96175-.1905Z" fill="#ebac06" stroke-width="0"/>
          <path d="m66.87846,41.73677c-.57811.10536-.93936-.33657-1.27378-.74962-.43361-.53557-.20589-1.36803.40683-1.68249.56485-.28989,1.13938-.34066,1.72461-.07212.38511.17671.62167.45213.59265.90896-.01894.29815-.00328.59715-.13985.87794-.27579.56706-.61511.7676-1.31047.71733Zm1.1683-1.21048c.00095-.7002-.25783-.98689-.80588-1.08452-.23052-.04106-.44721-.0067-.66759.02621-.3919.0585-.73054.22066-.86295.62055-.13895.41966.05685.75822.34414,1.05062.07279.07408.1585.13835.24656.19405.36016.22782.74899.33781,1.14657.13208.42583-.22035.59032-.61373.59915-.93899Z" fill="#ebac06" stroke-width="0"/>
          <path d="m66.32251,40.91779c-.281-.37866-.27793-.71993.00838-.92946.40178-.29403.83996-.26388,1.11066.07644.23322.2932.18522.76351-.10354,1.01435-.29192.25358-.80241.16938-1.02273-.1687.14761-.05079.19415.10698.29983.14612.22273.0825.52608-.00643.68148-.21043.16049-.21069.15417-.49943-.01538-.7034-.17462-.21005-.44791-.25423-.73388-.11863-.21904.10386-.32205.33461-.26938.59788.01957.09777.10452.18606.04457.29583Z" fill="#ebac06" stroke-width="0"/>
          <path d="m67.12262,40.54535c-.01676.1279-.0767.18314-.17659.18894-.10352.00601-.17062-.04899-.17726-.15054-.00801-.12251.05875-.19743.18406-.18724.09717.0079.14561.0828.16979.14884Z" fill="#ebac06" stroke-width="0"/>
        </g>
        <g>
          <path d="m69.40537,63.29938c-.11434-.03086-.23528-.03655-.35133-.06228-.05733-.01272-.11908-.04397-.11587-.11647.00465-.1054.09511-.09399.16326-.09944.04303-.00344.08819.01159.13157.02191.1483.03515.29554.02663.28887-.16227-.00559-.1587-.13391-.22144-.29412-.1916-.10433.01943-.20973.03105-.30787-.02076-.05233-.02763-.10054-.06691-.09912-.13544.00167-.08157.06771-.09434.12511-.09443.11862-.00014.23844.02452.3555.01393.09766-.00887.16065-.08473.15139-.18874-.00871-.09791-.07138-.17863-.16896-.17751-.10116.00115-.20077.0511-.30303.06535-.12687.01764-.2649.04207-.32707-.12275.16564-.14853.37805-.12926.55458-.20874.09848-.04434.21465-.07784.16053-.21628-.04026-.10307-.13414-.17204-.25182-.1378-.1139.03313-.21846.09711-.33064.13785-.10382.03767-.19034.16523-.32588.0714.00999-.21053.1947-.28821.31208-.41648.11888-.12983.06402-.2141-.07736-.268-.09647-.0368-.17327.01487-.24797.067-.02873.05554-.05321.11475-.1181.13977-.02821.02516-.07378.0766-.08185.07126-.06143-.0406-.03254-.0939-.00575-.14381-.00566-.08139.04099-.1329.10093-.1768.05408-.1664.03318-.30521-.16287-.3451-.17552-.03572-.23775.07633-.2581.23033-.00976.07376-.02878.14704-.05123.21814-.02951.0936-.0909.16083-.19653.13693-.1227-.02775-.10877-.13203-.08249-.21527.04035-.12777.11471-.24577.1472-.37484.0403-.16005-.04693-.26729-.20508-.28356-.13595-.01398-.17572.08817-.16816.20746.00664.10497.01847.20911-.03703.30661-.0579.10171-.14513.148-.26005.13565-.15421-.01661-.13088-.13682-.12802-.23761.00209-.07433.02974-.14864.02704-.22228-.0077-.21184-.17625-.31199-.32473-.16438-.06533.06494-.0494.30796-.04019.37697.01084.08088.03556.20022-.09463.19928-.128-.00092-.09706-.12362-.09768-.20295-.00055-.07117-.04741-.30017-.09523-.3361-.09099-.06833-.20354-.05559-.28521.03203-.0697.07484-.04803.1576-.00914.2482.04649.10843.07781.22588.09667.34251.00891.05524-.03609.11356-.09853.13267-.06837.02094-.11649-.01664-.13931-.07685-.02097-.05527-.02353-.11741-.04372-.17309-.03625-.09995-.0813-.21328-.2158-.16979-.12983.04198-.11157.16092-.08868.26623.01544.07101.05676.14083-.01414.21271-.18812.0088-.20217-.19025-.31332-.27425-.07275-.05497-.14465-.11111-.23619-.02821-.09452.08561-.10882.17414-.01904.27056.07142.07671.14683.1499.21571.22881.0574.06572.12992.13437.03089.22799-.17249-.03114-.25604-.19889-.40511-.2677-.11425-.05272-.22414-.10588-.31323.03249-.08785.13638-.00454.21626.09683.29845.11603.09404.29554.13519.3267.38903-.11491-.04303-.19188-.07158-.26864-.10064-.12529-.04745-.27221-.12939-.35933.02754-.11636.20971.10488.23088.2106.31449.0212.01675.02924.05007.04929.08659-.06223.01123-.11995.02191-.17779.03199-.10792.01881-.22082.05449-.22618.17719-.00564.12932.11111.1593.21717.17774.07163.01246.14942.00202.20764.0599-.00087.22623-.17332.18943-.31701.21924-.22249.04617-.28498.16704-.15842.3421.07944.10987.13063.15893.02832.29146-.11104.14385-.03375.24696.14795.26901.08363.01015.17286-.04725.25569.0231-.00493.1485-.1798.1916-.20647.33195-.01485.07802-.03217.1436.03034.20455.0653.06361.13457.05298.20134.00573.09722-.06879.19195-.1411.28773-.2119.02482-.05261.07165-.11136.12151-.07513.09273.06737.02885.13945-.02637.20152-.06274.10142-.12983.20049-.18702.30496-.05123.09365-.10093.20815.00344.28523.10465.07729.18982-.00976.27198-.08077.12353-.10678.16285-.30567.4198-.38124-.13251.22467-.23154.38495-.32168.55011-.02653.04862-.05046.11516.01558.16058.05431.03737.11759.03739.1669-.00156.09954-.07864.19238-.16573.29504-.25549.02601.12809-.06847.20494-.08565.30704-.02019.12014-.0044.20925.12428.24403.10449.02823.16585-.0269.21523-.1145.06061-.10749.03506-.26937.20867-.3243.03442.11102.0159.2133-.02672.30819-.06982.15549-.04056.2745.1318.30553.1713.03084.23379-.08698.25278-.241.01631-.13217-.01595-.2883.15258-.38985.0555.14376.03522.25711.00774.37587-.03419.14772.04924.23638.18778.24348.1458.00747.22256-.08143.19362-.23065-.03098-.15971-.04454-.31314.05978-.4794.16413.1194.20391.24902.17313.43426-.02894.17423.10231.24307.25588.21669.15194-.02608.18505-.14607.12809-.27521-.06537-.14825-.20443-.39583-.02718-.41936.24348-.03231.15013.24197.15036.41116.00014.11727.08813.19078.2119.18077.14566-.01178.21383-.09209.17632-.24309-.02413-.0972-.09479-.19115-.02339-.29632.02722.00981.05834.01233.07644.02899.10852.09993.17307.36394.36909.19261.21809-.19066-.01799-.2973-.14811-.4099-.06828-.05907-.13391-.13693-.06957-.22955.04555-.06558.1307-.05788.20741-.05034.15886.01558.26648.12999.39732.19971.12657.06748.23963.04851.29769-.0876.04917-.11521-.00841-.21374-.12135-.25033-.11512-.0373-.22799-.075-.32441-.1474-.05229-.03927-.14933-.06709-.0944-.16473.04784-.08503.12488-.05708.19543-.03036.12515.04736.24639.11232.37567.13925.11145.02321.21273-.04228.23347-.15923.01904-.1073-.07472-.15517-.16237-.18079-.09892-.02887-.21266-.00137-.30088-.07342-.06984-.05701-.15551-.12291-.11216-.22091.04942-.11166.14562-.06624.22737-.02564.06695.03325.12997.078.20022.10013.12096.03817.21122-.02287.24847-.13194.04047-.11846-.02204-.20865-.13844-.24007Zm-2.69993,1.41026c-1.11383.01343-1.59742-.61857-1.72262-1.3601-.13645-.80812.46217-1.54712,1.34599-1.72516.52403-.10554,1.00806.01059,1.47089.24815.3119.16012.4939.43041.58517.76032.33254,1.20205-.38729,2.08995-1.67943,2.07679Z" fill="#03754d" stroke-width="0"/>
          <path d="m67.98093,63.34551c-.04122.81997-.5566,1.23232-1.37619,1.10486-.28529-.04437-.54813-.13574-.79178-.29589-.58559-.38487-.63793-1.17367-.13504-1.65772.42787-.41185.91555-.52788,1.4818-.44232.15857.02396.28249.09047.39067.19855.30195.30168.451.66405.43054,1.09251Zm-2.3966-.14374c.00657.39729.19523.61711.48287.75703.2872.13971.59484.19289.91652.18306.32484-.00992.5334-.18249.66722-.45537.1826-.37236.08661-.90694-.2045-1.21836-.26768-.28636-.68662-.34586-1.12296-.14677-.40399.18432-.69134.46724-.73915.88042Z" fill="#03754d" stroke-width="0"/>
          <path d="m67.32497,63.15553c-.00087.33991-.27967.63837-.60983.65284-.32319.01417-.73564-.31919-.73531-.5943.00042-.34433.31441-.70956.61514-.71555.45599-.00907.73108.23851.73.65701Zm-.69392-.54011c-.24923-.00013-.49229.25853-.49895.53099-.00701.28645.23739.50655.56064.50491.2488-.00126.47078-.23157.47511-.49292.00473-.28499-.25018-.54283-.5368-.54298Z" fill="#03754d" stroke-width="0"/>
          <path d="m66.74733,62.9479c.1082.00758.17399.07115.16162.17321-.00898.07411-.07506.12626-.1624.12564-.11351-.00081-.16311-.06299-.15241-.17061.00872-.08777.06897-.12494.15319-.12823Z" fill="#03754d" stroke-width="0"/>
        </g>
      </g>
      <path d="m47.93514,29.04715c.02885.22707-.01405.46289-.12939.65446.7147.21886,1.42062.47015,2.1157.75711,2.81269,1.16119,5.33889,2.82369,7.50841,4.94129s3.87276,4.58334,5.06243,7.32872c1.23154,2.84199,1.85598,5.86132,1.85598,8.9741s-.62444,6.13211-1.85598,8.9741c-1.18967,2.74538-2.89291,5.21112-5.06243,7.32872-2.16953,2.11759-4.69572,3.7801-7.50841,4.94129-2.91167,1.20206-6.00501,1.81156-9.19412,1.81156s-6.28244-.6095-9.19412-1.81156c-2.81269-1.16119-5.33889-2.8237-7.50841-4.94129-2.16953-2.1176-3.87276-4.58334-5.06243-7.32872-1.23154-2.84199-1.85598-5.86132-1.85598-8.9741s.62444-6.13211,1.85598-8.9741c1.18967-2.74538,2.89291-5.21112,5.06243-7.32872,2.16953-2.1176,4.69572-3.7801,7.50841-4.94129.45894-.18947.92289-.36248,1.39053-.52244-.09253-.21305-.1109-.45988-.05405-.68376-9.56429,3.1884-16.44239,12.03505-16.44239,22.45032,0,13.09938,10.8795,23.71852,24.30003,23.71852s24.30003-10.61914,24.30003-23.71852c0-10.64955-7.19129-19.65821-17.09222-22.65568Z" fill="#063f23" stroke-width="0"/>
      <path d="m24.02951,53.69216c-.24357-.59118-.54915-1.29271-1.16298-1.62817-.10144-.05544-.33151-.17776-.64882-.18363-.41607-.0077-.7221.18965-.84469.28156-.38935.29192-.50744.70429-.57536.95487-.11966.44153-.08123.81225,0,1.30988.15936.97638.364,1.70936.41622,1.89748,0,.00002.55031,1.98254,1.24867,3.91739.05774.15999.17536.47308.47743.68554.38376.26991.84049.21937,1.05279.19586.11715-.01297,1.13129-.14125,1.60368-.97935.29462-.52272.2204-1.04108.11018-1.73834-.10657-.67426-.26343-.94039-.67331-2.01989-.41811-1.10116-.50234-1.47601-1.00382-2.6932Z" fill="none" stroke-width="0"/>
      <path d="m27.26135,48.84439c.37679.42435.99901,1.1251,2.09333,1.65265.57552.27743,1.86563.87688,3.52567.57537.00002,0,1.93709-.35183,3.20735-1.93422.04186-.05214.59543-.75493.80795-1.66489.09257-.39636.08485-.67973,0-.94262-.07225-.22383-.18587-.38773-.26932-.48967-3.32162.01225-6.64321.02448-9.96484.03673-.06707.127-.15102.31859-.19586.56313-.0149.08114-.07509.43872.04896.91813.12969.50118.39787.89248.74676,1.28539Z" fill="none" stroke-width="0"/>
      <path d="m55.89495,60.14358c.47238.8381,1.48651.96638,1.60368.97935.21229.0235.66903.07405,1.05278-.19586.30208-.21246.41969-.52555.47743-.68554.69836-1.93485,1.24867-3.91736,1.24867-3.91739.05221-.18812.25686-.9211.41622-1.89748.08123-.49763.11965-.86836,0-1.30988-.06792-.25057-.18601-.66295-.57536-.95487-.12259-.09191-.42862-.28926-.84468-.28156-.31731.00587-.54739.12819-.64883.18363-.61383.33546-.9194,1.03699-1.16297,1.62817-.50149,1.21718-.58572,1.59204-1.00382,2.6932-.40988,1.0795-.56675,1.34563-.67332,2.01989-.11021.69726-.18443,1.21562.11019,1.73834Z" fill="none" stroke-width="0"/>
      <path d="m54.68546,46.07774c-3.32162-.01225-6.64322-.02448-9.96484-.03673-.08345.10194-.19708.26584-.26933.48967-.08485.26289-.09257.54626,0,.94262.21253.90997.76609,1.61275.80796,1.66489,1.27026,1.58238,3.20733,1.93422,3.20735,1.93422,1.66004.30151,2.95015-.29794,3.52566-.57537,1.09433-.52754,1.71655-1.2283,2.09334-1.65265.34889-.39291.61706-.78421.74676-1.28539.12405-.47941.06386-.83699.04896-.91813-.04484-.24454-.12879-.43613-.19586-.56313Z" fill="none" stroke-width="0"/>
      <path d="m54.68546,46.07774c-3.32162-.01225-6.64322-.02448-9.96484-.03673-.08345.10194-.19708.26584-.26933.48967-.08485.26289-.09257.54626,0,.94262.21253.90997.76609,1.61275.80796,1.66489,1.27026,1.58238,3.20733,1.93422,3.20735,1.93422,1.66004.30151,2.95015-.29794,3.52566-.57537,1.09433-.52754,1.71655-1.2283,2.09334-1.65265.34889-.39291.61706-.78421.74676-1.28539.12405-.47941.06386-.83699.04896-.91813-.04484-.24454-.12879-.43613-.19586-.56313Z" fill="none" stroke-width="0"/>
      <path d="m55.89495,60.14358c.47238.8381,1.48651.96638,1.60368.97935.21229.0235.66903.07405,1.05278-.19586.30208-.21246.41969-.52555.47743-.68554.69836-1.93485,1.24867-3.91736,1.24867-3.91739.05221-.18812.25686-.9211.41622-1.89748.08123-.49763.11965-.86836,0-1.30988-.06792-.25057-.18601-.66295-.57536-.95487-.12259-.09191-.42862-.28926-.84468-.28156-.31731.00587-.54739.12819-.64883.18363-.61383.33546-.9194,1.03699-1.16297,1.62817-.50149,1.21718-.58572,1.59204-1.00382,2.6932-.40988,1.0795-.56675,1.34563-.67332,2.01989-.11021.69726-.18443,1.21562.11019,1.73834Z" fill="none" stroke-width="0"/>
      <path d="m47.64398,13.01256c.00485-.12405.00676-.27836.0001-.45567-.00728-.19387-.02486-.41537-.06131-.65834-.0265-.1767-.05689-.32376-.10435-.50936-.05239-.20483-.12562-.4567-.23841-.84948-.08235-.28671-.21434-.7482-.37952-1.33436-.15742.23906-.36664.57518-.5876.9916-.25865.48748-.69073,1.31457-.96711,2.4606-.07285.30206-.15598.71375-.2081,1.21194v23.02076c-.38289-.09077-.79785-.17118-1.24256-.2326-.95272-.13157-1.81547-.14474-2.55241-.10405v7.95718h15.09418v.86917h-14.92278s-.26321.03367-.15304.31217c.11019.2785,4.11938,10.04442,4.11938,10.04442l-4.14633,1.76282c.00695.73858.01389,1.47718.02083,2.21576.3248.02081.80768.01841,1.3711-.11324.95387-.22288,1.58478-.68678,1.81789-.87222.39609-.31511.77805-.61897,1.00997-1.17522.29758-.71377.15618-1.38275.08263-1.65264h2.09338c.06609.36205.12811.98102-.07348,1.68937-.26735.93937-.84546,1.49881-1.17521,1.81791-1.73366,1.67769-4.59767,1.78631-5.1232,1.79955v1.76285h2.97476v.93647h-2.98395c-.00307,2.22801-.00612,4.45603-.00919,6.68404h3.0666v-4.49887c1.01479-.11117,2.23849-.35354,3.5593-.85692,1.79432-.68383,2.99511-1.55486,3.35428-1.82404,1.08445-.81275,1.80538-1.6167,2.15456-2.03215.39512-.4701.6981-.89944.91812-1.23643-.01487.28574-.00905.69655.09489,1.17523.07511.34587.16053.73931.44069,1.16602.11264.17156.48254.7184,1.21194,1.01914.18649.0769.64144.25815,1.21194.18363.21828-.0285.74554-.1326,1.45066-.7896.32185-.29988.82549-.84981,1.57002-2.6075.51514-1.21619.80665-2.21032.94566-2.71769.18461-.6738.46127-1.70102.60597-3.08494,0-.00002.13192-1.26158-.03673-2.93804-.03932-.39078-.0993-.83509-.38561-1.30375-.21605-.35366-.56612-.74088-.89058-.88141-.82669-.35805-2.33565.50729-3.42466,2.32288.0617-.64748.10916-1.3245.13773-2.02907.03415-.84192-.00096-.70569-.01838-3.42465,0-.00002-.00341-.53303-.07343-1.25786-.07413-.76733-.15295-1.01844-.2326-1.20581-.18523-.43574-.4525-.70923-.62435-.88142-1.5037-1.50651-2.32591-2.1117-2.32593-2.11172-.79641-.58619-1.85616-1.35814-3.42771-2.11783-1.05547-.51021-2.05196-.87482-2.93805-1.13849V13.01256Zm7.18838,34.54644c-.12969.50118-.39787.89248-.74676,1.28539-.37679.42435-.99901,1.1251-2.09334,1.65265-.57551.27743-1.86562.87688-3.52566.57537-.00002,0-1.93709-.35183-3.20735-1.93422-.04186-.05214-.59543-.75493-.80796-1.66489-.09257-.39636-.08485-.67973,0-.94262.07225-.22383.18588-.38773.26933-.48967,3.32161.01225,6.64321.02448,9.96484.03673.06707.127.15102.31859.19586.56313.0149.08114.07509.43872-.04896.91813Zm2.62954,6.13316c.24357-.59118.54915-1.29271,1.16297-1.62817.10144-.05544.33151-.17776.64883-.18363.41606-.0077.72209.18965.84468.28156.38935.29192.50745.70429.57536.95487.11965.44153.08123.81225,0,1.30988-.15936.97638-.36401,1.70936-.41622,1.89748,0,.00002-.55032,1.98254-1.24867,3.91739-.05775.15999-.17536.47308-.47743.68554-.38375.26991-.84049.21937-1.05278.19586-.11716-.01297-1.13129-.14125-1.60368-.97935-.29463-.52272-.22041-1.04108-.11019-1.73834.10657-.67426.26344-.94039.67332-2.01989.4181-1.10116.50233-1.47601,1.00382-2.6932Z" fill="#ebac06" stroke-width="0"/>
      <path d="m33.80533,37.55743l2.54629-.63046V13.90622c-.05215-.49819-.13528-.9099-.2081-1.21194-.27638-1.14604-.70848-1.97313-.96713-2.4606-.22093-.41641-.43018-.75253-.5876-.99159-.16516.58616-.29714,1.04763-.37949,1.33436-.10594.36887-.17706.61364-.22873.81176-.0532.20399-.08577.35851-.11406.54708-.03418.22794-.05185.43728-.05993.62241-.00842.19269-.00644.35914-.00124.49159v24.50814Z" fill="#ebac06" stroke-width="0"/>
      <path d="m30.86726,38.69591c-1.57155.7597-2.6313,1.53163-3.42769,2.11783-.00004,0-.82223.6052-2.32596,2.11172-.17185.17218-.43912.44568-.62435.88141-.07965.18738-.15847.43848-.23258,1.20581-.07002.72483-.07345,1.25783-.07345,1.25786-.01742,2.71896-.05252,2.58273-.01838,3.42465.02859.70459.07602,1.3816.13775,2.02908-1.08903-1.81559-2.59799-2.68094-3.42466-2.32289-.32446.14053-.67453.52776-.89061.88142-.28628.46866-.34627.91296-.38559,1.30374-.16864,1.67646-.03675,2.93801-.03675,2.93804.14472,1.38394.42138,2.41115.60597,3.08494.13904.50737.43055,1.5015.94568,2.71769.74451,1.75769,1.24815,2.30762,1.57,2.60751.70514.65699,1.23238.76109,1.45066.7896.5705.07452,1.02547-.10673,1.21194-.18362.72943-.30074,1.0993-.84759,1.21194-1.01914.28018-.42672.36561-.82016.44072-1.16602.10393-.47868.10976-.88948.09487-1.17523.22001.33698.52302.76633.91814,1.23643.34916.41545,1.07011,1.21939,2.15456,2.03215.35915.26917,1.55996,1.1402,3.35428,1.82403,1.32078.50338,2.5445.74575,3.5593.85693v4.49887h3.06657c-.00307-2.22802-.0061-4.45603-.00917-6.68404h-2.98395v-.93648h2.97474v-1.76285c-.5255-.01324-3.38952-.12186-5.1232-1.79955-.32973-.3191-.90784-.87854-1.17519-1.81791-.2016-.70835-.13959-1.32731-.07351-1.68937h2.09338c-.07355.26989-.21493.93886.08263,1.65264.23193.55625.6139.8601,1.00999,1.17521.23312.18545.86402.64935,1.81787.87223.56344.13165,1.04632.13406,1.3711.11324.00697-.73858.01389-1.47718.02086-2.21576l-4.14635-1.76282s4.00919-9.76592,4.1194-10.04441c.11017-.27851-.15306-.31218-.15306-.31218h-14.92278v-.86917h15.09418v-7.95719c-.73695-.04068-1.59969-.02751-2.55239.10406-.4447.06141-.85967.14181-1.24256.2326l-2.54629.63046c-.88612.26367-1.88258.62826-2.93807,1.13848Zm-4.40162,7.94495c.04484-.24454.12879-.43613.19586-.56313,3.32162-.01225,6.64321-.02448,9.96484-.03673.08345.10194.19708.26584.26932.48967.08485.26289.09257.54626,0,.94262-.21252.90997-.76609,1.61275-.80795,1.66489-1.27027,1.58238-3.20733,1.93422-3.20735,1.93422-1.66004.30151-2.95015-.29794-3.52567-.57537-1.09432-.52754-1.71654-1.2283-2.09333-1.65265-.34889-.39291-.61706-.78421-.74676-1.28539-.12405-.47941-.06386-.83699-.04896-.91813Zm-.759,11.76438c.11021.69726.18443,1.21562-.11018,1.73834-.47239.8381-1.48652.96638-1.60368.97935-.2123.0235-.66903.07405-1.05279-.19586-.30207-.21246-.41969-.52555-.47743-.68554-.69836-1.93485-1.24867-3.91736-1.24867-3.91739-.05222-.18812-.25686-.9211-.41622-1.89748-.08123-.49763-.11966-.86836,0-1.30988.06792-.25057.18601-.66295.57536-.95487.12259-.09191.42862-.28926.84469-.28156.3173.00587.54738.12819.64882.18363.61383.33546.91941,1.03699,1.16298,1.62817.50148,1.21718.58571,1.59204,1.00382,2.6932.40988,1.0795.56675,1.34563.67331,2.01989Z" fill="#00744c" stroke-width="0"/>
      <polygon points="41.30272 55.39989 44.87121 55.39989 41.30272 54.4389 41.30272 55.39989" fill="#00744c" stroke-width="0"/>
      <polygon points="40.13362 55.39989 40.13362 54.4389 36.56513 55.39989 40.13362 55.39989" fill="#ebac06" stroke-width="0"/>
      <g>
        <path d="m36.86503,13.4035c.52008-.01018.93384.01856,1.22744.0491.23646.0246.42828.05383.65461-.03273.2734-.10456.44339-.31928.54007-.4746.50733-1.49473,1.01469-2.98947,1.52202-4.4842.43641,1.39108.87284,2.78217,1.30925,4.17325.02126.09568.08389.31516.27822.50733.27063.26762.60332.29112.68735.29459.50188-.02728,1.00376-.05455,1.50564-.08183-1.28926-4.45147-2.57849-8.90294-3.86775-13.3544-1.28562,4.46783-2.57124,8.93567-3.85686,13.4035Z" fill="#ebac06" stroke-width="0"/>
        <path d="m44.19155,14.07176c-.17591.06022-.74855.23121-1.39655-.01092-.10785-.04029-.52972-.20859-.87284-.6328-.279-.34494-.36965-.69058-.4255-.89466-.14875-.54348-.37958-1.28451-.76918-2.33483-.00002.9183-.00004,1.83661-.00008,2.7549-.00002-.9183-.00004-1.83661-.00006-2.7549-.3896,1.05032-.62043,1.79135-.76918,2.33483-.05585.20408-.1465.54972-.4255.89466-.34312.42422-.76499.59251-.87284.6328-.648.24213-1.22064.07114-1.39655.01092-.05455.04001-.10911.08001-.16366.12002v1.51659h7.25561v-1.51659c-.05455-.04001-.10911-.08001-.16366-.12002Z" fill="#ebac06" stroke-width="0"/>
      </g>
    </g>
  </g>
</svg>